<?xml version="1.0" standalone="no"?><!DOCTYPE svg PUBLIC "-//W3C//DTD SVG 1.1//EN" "http://www.w3.org/Graphics/SVG/1.1/DTD/svg11.dtd"><svg t="1752287991065" class="icon" viewBox="0 0 1024 1024" version="1.1" xmlns="http://www.w3.org/2000/svg" p-id="58539" xmlns:xlink="http://www.w3.org/1999/xlink" width="200" height="200"><path d="M384 512a128 128 0 0 1 128-128h128v128a128 128 0 0 1-128 128H384V512z" fill="#6698F4" p-id="58540"></path><path d="M576 368H496a128 128 0 0 0-128 128v352a128 128 0 0 0 128 128h352a128 128 0 0 0 128-128v-352a128 128 0 0 0-128-128H704v89.6h144a38.4 38.4 0 0 1 38.4 38.4v352a38.4 38.4 0 0 1-38.4 38.4h-352a38.4 38.4 0 0 1-38.4-38.4v-352a38.4 38.4 0 0 1 38.4-38.4H576v-89.6z" fill="#afcd50" p-id="58541" data-spm-anchor-id="a313x.search_index.0.i25.67633a81sAZ9YP" class=""></path><path d="M176 137.6h352a38.4 38.4 0 0 1 38.4 38.4v352a38.4 38.4 0 0 1-38.4 38.4H448v89.6h80a128 128 0 0 0 128-128v-352a128 128 0 0 0-128-128h-352a128 128 0 0 0-128 128v352a128 128 0 0 0 128 128H320v-89.6H176a38.4 38.4 0 0 1-38.4-38.4v-352a38.4 38.4 0 0 1 38.4-38.4z" fill="#afcd50" p-id="58542" data-spm-anchor-id="a313x.search_index.0.i24.67633a81sAZ9YP" class=""></path><path d="M320 448a128 128 0 0 1 128-128h256v256a128 128 0 0 1-128 128H320V448z" fill="#c8db8c" opacity=".6" p-id="58543" data-spm-anchor-id="a313x.search_index.0.i26.67633a81sAZ9YP" class=""></path></svg>