<?xml version="1.0" encoding="UTF-8"?>
<svg xmlns="http://www.w3.org/2000/svg" xmlns:xlink="http://www.w3.org/1999/xlink" width="px" height="40px" viewBox="0 0 40 40" version="1.1">
<g id="surface1">
<path style=" stroke:none;fill-rule:nonzero;fill:rgb(96.078432%,42.352942%,42.352942%);fill-opacity:1;" d="M 21.25 25.648438 L 15 25.648438 L 15 33.148438 L 25 33.148438 L 25 25.648438 Z M 22.5 30.648438 L 17.5 30.648438 L 17.5 28.148438 L 22.5 28.148438 Z M 22.5 30.648438 "/>
<path style=" stroke:none;fill-rule:nonzero;fill:rgb(54.901963%,54.901963%,54.901963%);fill-opacity:1;" d="M 1.25 28.148438 L 15 28.148438 L 15 30.648438 L 1.25 30.648438 Z M 18.75 25.648438 L 21.25 25.648438 L 21.25 21.855469 L 18.75 21.855469 Z M 25 28.148438 L 25 30.648438 L 38.75 30.648438 L 38.75 28.148438 Z M 25 28.148438 "/>
<path style=" stroke:none;fill-rule:nonzero;fill:rgb(80.000001%,80.000001%,80.000001%);fill-opacity:1;" d="M 38.75 19.976562 C 38.75 21.011719 37.910156 21.851562 36.875 21.851562 L 3.125 21.851562 C 2.089844 21.851562 1.25 21.011719 1.25 19.976562 L 1.25 8.726562 C 1.25 7.691406 2.089844 6.851562 3.125 6.851562 L 36.875 6.851562 C 37.910156 6.851562 38.75 7.691406 38.75 8.726562 Z M 36.25 10.601562 C 36.25 9.914062 35.691406 9.351562 35 9.351562 L 5 9.351562 C 4.308594 9.351562 3.75 9.914062 3.75 10.601562 L 3.75 18.101562 C 3.75 18.792969 4.308594 19.351562 5 19.351562 L 35 19.351562 C 35.691406 19.351562 36.25 18.792969 36.25 18.101562 Z M 36.25 10.601562 "/>
<path style=" stroke:none;fill-rule:nonzero;fill:rgb(96.078432%,42.352942%,42.352942%);fill-opacity:1;" d="M 5.453125 15.1875 L 6.5625 15.1875 L 6.5625 16.296875 L 7.117188 16.296875 L 7.117188 16.851562 L 9.894531 16.851562 L 9.894531 16.296875 L 10.453125 16.296875 L 10.453125 15.1875 L 11.5625 15.1875 L 11.5625 11.855469 L 5.453125 11.855469 Z M 13.113281 15.1875 L 14.226562 15.1875 L 14.226562 16.296875 L 14.78125 16.296875 L 14.78125 16.851562 L 17.558594 16.851562 L 17.558594 16.296875 L 18.113281 16.296875 L 18.113281 15.1875 L 19.226562 15.1875 L 19.226562 11.855469 L 13.113281 11.855469 Z M 20.773438 15.1875 L 21.886719 15.1875 L 21.886719 16.296875 L 22.441406 16.296875 L 22.441406 16.851562 L 25.222656 16.851562 L 25.222656 16.296875 L 25.773438 16.296875 L 25.773438 15.1875 L 26.886719 15.1875 L 26.886719 11.855469 L 20.773438 11.855469 Z M 28.4375 15.1875 L 29.546875 15.1875 L 29.546875 16.296875 L 30.105469 16.296875 L 30.105469 16.851562 L 32.882812 16.851562 L 32.882812 16.296875 L 33.4375 16.296875 L 33.4375 15.1875 L 34.546875 15.1875 L 34.546875 11.855469 L 28.4375 11.855469 Z M 28.4375 15.1875 "/>
</g>
</svg>
