<?xml version="1.0" encoding="UTF-8"?>
<svg xmlns="http://www.w3.org/2000/svg" xmlns:xlink="http://www.w3.org/1999/xlink" width="px" height="40px" viewBox="0 0 40 40" version="1.1">
<g id="surface1">
<path style=" stroke:none;fill-rule:nonzero;fill:rgb(54.11765%,54.11765%,54.11765%);fill-opacity:1;" d="M 30.761719 38.960938 L 8.480469 38.960938 C 5.519531 38.960938 3.121094 36.558594 3.121094 33.601562 L 3.121094 16.800781 C 3.121094 13.839844 5.519531 11.441406 8.480469 11.441406 L 30.800781 11.441406 C 33.761719 11.441406 36.160156 13.839844 36.160156 16.800781 L 36.160156 33.601562 C 36.121094 36.558594 33.71875 38.960938 30.761719 38.960938 Z M 8.480469 14.199219 C 7.039062 14.199219 5.878906 15.359375 5.878906 16.800781 L 5.878906 33.601562 C 5.878906 35.039062 7.039062 36.199219 8.480469 36.199219 L 30.800781 36.199219 C 32.238281 36.199219 33.398438 35.039062 33.398438 33.601562 L 33.398438 16.800781 C 33.398438 15.359375 32.238281 14.199219 30.800781 14.199219 Z M 29.238281 11.441406 L 26.480469 11.441406 C 26.480469 7.640625 23.398438 4.558594 19.601562 4.558594 C 15.800781 4.558594 12.71875 7.640625 12.71875 11.441406 L 9.960938 11.441406 C 9.960938 6.121094 14.320312 1.800781 19.601562 1.800781 C 24.921875 1.800781 29.238281 6.121094 29.238281 11.441406 Z M 29.238281 11.441406 "/>
<path style=" stroke:none;fill-rule:nonzero;fill:rgb(68.627453%,80.392158%,31.37255%);fill-opacity:1;" d="M 19.601562 31.398438 C 18.441406 31.398438 17.519531 30.480469 17.519531 29.320312 L 17.519531 21.078125 C 17.519531 19.921875 18.441406 19 19.601562 19 C 20.761719 19 21.679688 19.921875 21.679688 21.078125 L 21.679688 29.320312 C 21.679688 30.480469 20.761719 31.398438 19.601562 31.398438 Z M 19.601562 31.398438 "/>
</g>
</svg>
