<?xml version="1.0" encoding="UTF-8"?>
<svg xmlns="http://www.w3.org/2000/svg" xmlns:xlink="http://www.w3.org/1999/xlink" width="px" height="40px" viewBox="0 0 40 40" version="1.1">
<g id="surface1">
<path style=" stroke:none;fill-rule:nonzero;fill:rgb(54.11765%,54.11765%,54.11765%);fill-opacity:1;" d="M 31.503906 40 L 8.457031 40 C 5.394531 40 2.910156 37.765625 2.910156 35.007812 L 2.910156 19.359375 C 2.910156 16.601562 5.394531 14.367188 8.457031 14.367188 L 31.542969 14.367188 C 34.605469 14.367188 37.089844 16.601562 37.089844 19.359375 L 37.089844 35.007812 C 37.046875 37.765625 34.566406 40 31.503906 40 Z M 8.449219 17.214844 C 6.960938 17.214844 5.757812 18.265625 5.757812 19.570312 L 5.757812 34.796875 C 5.757812 36.101562 6.960938 37.152344 8.449219 37.152344 L 31.550781 37.152344 C 33.039062 37.152344 34.242188 36.101562 34.242188 34.796875 L 34.242188 19.574219 C 34.242188 18.269531 33.039062 17.21875 31.550781 17.21875 Z M 29.464844 5.839844 L 26.621094 7.429688 C 24.429688 3.507812 19.476562 2.101562 15.554688 4.292969 C 11.636719 6.484375 10.230469 11.4375 12.421875 15.359375 L 9.574219 16.949219 C 6.507812 11.460938 8.519531 4.488281 13.964844 1.445312 C 19.457031 -1.621094 26.402344 0.351562 29.46875 5.839844 Z M 31.390625 14.363281 "/>
<path style=" stroke:none;fill-rule:nonzero;fill:rgb(96.078432%,42.352942%,42.352942%);fill-opacity:1;" d="M 20 31.453125 C 18.808594 31.453125 17.863281 30.820312 17.863281 30.019531 L 17.863281 24.34375 C 17.863281 23.542969 18.808594 22.910156 20 22.910156 C 21.191406 22.910156 22.136719 23.546875 22.136719 24.34375 L 22.136719 30.023438 C 22.136719 30.820312 21.191406 31.453125 20 31.453125 Z M 20 31.453125 "/>
</g>
</svg>
