<?xml version="1.0" standalone="no"?><!DOCTYPE svg PUBLIC "-//W3C//DTD SVG 1.1//EN" "http://www.w3.org/Graphics/SVG/1.1/DTD/svg11.dtd"><svg t="1752286336755" class="icon" viewBox="0 0 1024 1024" version="1.1" xmlns="http://www.w3.org/2000/svg" p-id="7789" xmlns:xlink="http://www.w3.org/1999/xlink" width="200" height="200"><path d="M806.518528 1024H216.471885c-78.390031 0-141.981291-57.239802-141.981292-127.795942V495.563781c0-70.581699 63.591261-127.795942 141.981292-127.795942h591.05623c78.390031 0 141.981291 57.239802 141.981292 127.795942v400.614718c-1.099045 70.581699-64.613628 127.795942-142.990879 127.795942zM216.318529 440.662644c-38.134309 0-68.907572 26.977723-68.907571 60.294125V890.836629c0 33.405859 30.773263 60.306905 68.907571 60.306905h591.362942c38.134309 0 68.907572-26.977723 68.907571-60.306905V501.059006c0-33.316402-30.773263-60.294125-68.907571-60.294125z m538.020915-291.208613l-72.843686 40.715787a208.179589 208.179589 0 1 0-363.528336 202.991074l-72.843687 40.703008C166.605908 293.365041 218.069334 114.85967 357.520266 37.006382c140.575536-78.466708 318.390809-28.051209 396.857517 112.460429z m49.290895 218.288249" fill="#8a8a8a" p-id="7790" data-spm-anchor-id="a313x.manage_type_mylikes.0.i99.f2243a81U6siKy" class=""></path><path d="M512 805.213348c-30.479332 0-54.683884-16.255644-54.683884-36.664656V623.168028c0-20.447351 24.204551-36.677435 54.683884-36.677435s54.683884 16.268423 54.683884 36.677435v145.406223c0 20.447351-24.204551 36.664656-54.683884 36.664656z m0 0" fill="#f56c6c" p-id="7791" data-spm-anchor-id="a313x.manage_type_mylikes.0.i100.f2243a81U6siKy" class="selected"></path></svg>