<?xml version="1.0" encoding="UTF-8"?>
<svg xmlns="http://www.w3.org/2000/svg" xmlns:xlink="http://www.w3.org/1999/xlink" width="px" height="40px" viewBox="0 0 40 40" version="1.1">
<g id="surface1">
<path style=" stroke:none;fill-rule:nonzero;fill:rgb(68.627453%,80.392158%,31.37255%);fill-opacity:1;" d="M 28.050781 13.054688 C 28.050781 13.820312 27.429688 14.433594 26.667969 14.433594 L 13.332031 14.433594 C 12.5625 14.433594 11.949219 13.8125 11.949219 13.054688 L 11.949219 3.476562 C 11.949219 2.710938 12.570312 2.097656 13.332031 2.097656 L 26.667969 2.097656 C 27.4375 2.097656 28.050781 2.71875 28.050781 3.476562 Z M 28.050781 13.054688 "/>
<path style=" stroke:none;fill-rule:nonzero;fill:rgb(54.11765%,54.11765%,54.11765%);fill-opacity:1;" d="M 26.667969 15.175781 C 27.835938 15.175781 28.792969 14.21875 28.792969 13.054688 L 28.792969 3.476562 C 28.792969 2.308594 27.835938 1.355469 26.667969 1.355469 L 13.332031 1.355469 C 12.164062 1.355469 11.207031 2.308594 11.207031 3.476562 L 11.207031 13.054688 C 11.207031 14.21875 12.164062 15.175781 13.332031 15.175781 L 19.257812 15.175781 L 19.257812 17.152344 L 17.3125 17.152344 C 16.90625 17.152344 16.570312 17.484375 16.570312 17.894531 C 16.570312 18.300781 16.90625 18.636719 17.3125 18.636719 L 22.675781 18.636719 C 23.085938 18.636719 23.421875 18.300781 23.421875 17.894531 C 23.421875 17.484375 23.085938 17.152344 22.675781 17.152344 L 20.734375 17.152344 L 20.734375 15.175781 Z M 12.6875 13.054688 L 12.6875 3.476562 C 12.6875 3.125 12.972656 2.832031 13.332031 2.832031 L 26.667969 2.832031 C 27.019531 2.832031 27.3125 3.117188 27.3125 3.476562 L 27.3125 13.054688 C 27.3125 13.402344 27.027344 13.699219 26.667969 13.699219 L 13.332031 13.699219 C 12.980469 13.699219 12.6875 13.414062 12.6875 13.054688 Z M 12.6875 13.054688 "/>
<path style=" stroke:none;fill-rule:nonzero;fill:rgb(85.882354%,85.882354%,85.882354%);fill-opacity:1;" d="M 16.839844 33.070312 C 16.839844 33.835938 16.21875 34.449219 15.460938 34.449219 L 2.121094 34.449219 C 1.355469 34.449219 0.742188 33.828125 0.742188 33.070312 L 0.742188 23.492188 C 0.742188 22.726562 1.363281 22.113281 2.121094 22.113281 L 15.460938 22.113281 C 16.230469 22.113281 16.839844 22.734375 16.839844 23.492188 Z M 39.265625 33.070312 C 39.265625 33.835938 38.644531 34.449219 37.886719 34.449219 L 24.546875 34.449219 C 23.78125 34.449219 23.167969 33.828125 23.167969 33.070312 L 23.167969 23.492188 C 23.167969 22.726562 23.789062 22.113281 24.546875 22.113281 L 37.878906 22.113281 C 38.644531 22.113281 39.257812 22.734375 39.257812 23.492188 L 39.257812 33.070312 Z M 39.265625 33.070312 "/>
<path style=" stroke:none;fill-rule:nonzero;fill:rgb(54.11765%,54.11765%,54.11765%);fill-opacity:1;" d="M 15.453125 21.363281 L 2.121094 21.363281 C 0.957031 21.363281 0 22.316406 0 23.484375 L 0 33.0625 C 0 34.226562 0.957031 35.183594 2.121094 35.183594 L 8.050781 35.183594 L 8.050781 37.160156 L 6.105469 37.160156 C 5.699219 37.160156 5.363281 37.492188 5.363281 37.902344 C 5.363281 38.308594 5.699219 38.644531 6.105469 38.644531 L 11.46875 38.644531 C 11.878906 38.644531 12.210938 38.308594 12.210938 37.902344 C 12.210938 37.492188 11.878906 37.160156 11.46875 37.160156 L 9.527344 37.160156 L 9.527344 35.183594 L 15.453125 35.183594 C 16.621094 35.183594 17.574219 34.226562 17.574219 33.0625 L 17.574219 23.492188 C 17.574219 22.316406 16.628906 21.363281 15.453125 21.363281 Z M 16.097656 33.070312 C 16.097656 33.421875 15.8125 33.714844 15.453125 33.714844 L 2.121094 33.714844 C 1.769531 33.714844 1.476562 33.429688 1.476562 33.070312 L 1.476562 23.492188 C 1.476562 23.144531 1.761719 22.847656 2.121094 22.847656 L 15.460938 22.847656 C 15.8125 22.847656 16.105469 23.132812 16.105469 23.492188 L 16.105469 33.070312 Z M 37.878906 21.363281 L 24.546875 21.363281 C 23.378906 21.363281 22.425781 22.316406 22.425781 23.484375 L 22.425781 33.0625 C 22.425781 34.226562 23.378906 35.183594 24.546875 35.183594 L 30.472656 35.183594 L 30.472656 37.160156 L 28.53125 37.160156 C 28.121094 37.160156 27.789062 37.492188 27.789062 37.902344 C 27.789062 38.308594 28.121094 38.644531 28.53125 38.644531 L 33.894531 38.644531 C 34.300781 38.644531 34.636719 38.308594 34.636719 37.902344 C 34.636719 37.492188 34.300781 37.160156 33.894531 37.160156 L 31.949219 37.160156 L 31.949219 35.183594 L 37.878906 35.183594 C 39.042969 35.183594 40 34.226562 40 33.0625 L 40 23.492188 C 40.007812 22.316406 39.054688 21.363281 37.878906 21.363281 Z M 38.523438 33.070312 C 38.523438 33.421875 38.238281 33.714844 37.878906 33.714844 L 24.546875 33.714844 C 24.195312 33.714844 23.902344 33.429688 23.902344 33.070312 L 23.902344 23.492188 C 23.902344 23.144531 24.1875 22.847656 24.546875 22.847656 L 37.878906 22.847656 C 38.226562 22.847656 38.523438 23.132812 38.523438 23.492188 Z M 3.003906 18.628906 C 3.414062 18.628906 3.746094 18.292969 3.746094 17.886719 L 3.746094 7.722656 L 8.1875 7.722656 C 8.597656 7.722656 8.929688 7.386719 8.929688 6.980469 C 8.929688 6.570312 8.597656 6.238281 8.1875 6.238281 L 3.003906 6.238281 C 2.597656 6.238281 2.261719 6.570312 2.261719 6.980469 L 2.261719 17.894531 C 2.261719 18.300781 2.597656 18.628906 3.003906 18.628906 Z M 36.996094 18.628906 C 37.402344 18.628906 37.738281 18.292969 37.738281 17.886719 L 37.738281 6.980469 C 37.738281 6.570312 37.402344 6.238281 36.996094 6.238281 L 31.8125 6.238281 C 31.402344 6.238281 31.070312 6.570312 31.070312 6.980469 C 31.070312 7.386719 31.402344 7.722656 31.8125 7.722656 L 36.253906 7.722656 L 36.253906 17.894531 C 36.261719 18.300781 36.585938 18.628906 36.996094 18.628906 Z M 36.996094 18.628906 "/>
</g>
</svg>
