<?xml version="1.0" encoding="UTF-8"?>
<svg xmlns="http://www.w3.org/2000/svg" xmlns:xlink="http://www.w3.org/1999/xlink" width="px" height="40px" viewBox="0 0 40 40" version="1.1">
<g id="surface1">
<path style=" stroke:none;fill-rule:nonzero;fill:rgb(54.11765%,54.11765%,54.11765%);fill-opacity:1;" d="M 21.25 31.292969 L 18.75 31.292969 L 18.75 26.875 L 21.25 26.875 Z M 38.75 33.792969 L 25 33.792969 L 25 36.292969 L 38.75 36.292969 Z M 1.25 33.792969 L 1.25 36.292969 L 15 36.292969 L 15 33.792969 Z M 1.25 33.792969 "/>
<path style=" stroke:none;fill-rule:nonzero;fill:rgb(68.627453%,80.392158%,31.37255%);fill-opacity:1;" d="M 21.25 31.292969 L 15 31.292969 L 15 38.792969 L 25 38.792969 L 25 31.292969 Z M 22.5 36.292969 L 17.5 36.292969 L 17.5 33.792969 L 22.5 33.792969 Z M 22.5 36.292969 "/>
<path style=" stroke:none;fill-rule:nonzero;fill:rgb(80.000001%,80.000001%,80.000001%);fill-opacity:1;" d="M 4.375 1.457031 L 4.375 28.542969 L 35.625 28.542969 L 35.625 1.457031 Z M 33.542969 26.457031 L 6.457031 26.457031 L 6.457031 3.542969 L 33.542969 3.542969 Z M 33.542969 26.457031 "/>
<path style=" stroke:none;fill-rule:nonzero;fill:rgb(54.11765%,54.11765%,54.11765%);fill-opacity:1;" d="M 12.707031 22.289062 L 14.792969 22.289062 L 14.792969 24.375 L 25.207031 24.375 L 25.207031 22.289062 L 27.292969 22.289062 L 27.292969 18.125 L 31.457031 18.125 L 31.457031 5.625 L 8.542969 5.625 L 8.542969 18.125 L 12.707031 18.125 Z M 12.707031 22.289062 "/>
<path style=" stroke:none;fill-rule:nonzero;fill:rgb(68.627453%,80.392158%,31.37255%);fill-opacity:1;" d="M 25.207031 9.792969 L 27.292969 9.792969 L 27.292969 13.957031 L 25.207031 13.957031 Z M 21.042969 9.792969 L 23.125 9.792969 L 23.125 13.957031 L 21.042969 13.957031 Z M 16.875 9.792969 L 18.957031 9.792969 L 18.957031 13.957031 L 16.875 13.957031 Z M 12.707031 9.792969 L 14.792969 9.792969 L 14.792969 13.957031 L 12.707031 13.957031 Z M 12.707031 9.792969 "/>
</g>
</svg>
