<?xml version="1.0" standalone="no"?><!DOCTYPE svg PUBLIC "-//W3C//DTD SVG 1.1//EN" "http://www.w3.org/Graphics/SVG/1.1/DTD/svg11.dtd"><svg t="1752286380770" class="icon" viewBox="0 0 1024 1024" version="1.1" xmlns="http://www.w3.org/2000/svg" p-id="8062" data-spm-anchor-id="a313x.manage_type_mylikes.0.i106.f2243a81U6siKy" xmlns:xlink="http://www.w3.org/1999/xlink" width="200" height="200"><path d="M884.6 847.8H140.8c-41.5 0-75.1-33.6-75.1-75.1V252.4c0-41.5 33.6-75.1 75.1-75.1h743.8c41.5 0 75.1 33.6 75.1 75.1v520.3c0 41.5-33.6 75.1-75.1 75.1z" fill="#ffffff" p-id="8063" data-spm-anchor-id="a313x.manage_type_mylikes.0.i105.f2243a81U6siKy" class="selected"></path><path d="M884.6 861.8H140.8c-49.1 0-89.1-39.9-89.1-89.1V252.4c0-49.1 39.9-89.1 89.1-89.1h743.8c49.1 0 89.1 39.9 89.1 89.1v520.3c0 49.1-40 89.1-89.1 89.1zM140.8 191.3c-33.7 0-61.1 27.4-61.1 61.1v520.3c0 33.7 27.4 61.1 61.1 61.1h743.8c33.7 0 61.1-27.4 61.1-61.1V252.4c0-33.7-27.4-61.1-61.1-61.1H140.8z" fill="#afcd50" p-id="8064" data-spm-anchor-id="a313x.manage_type_mylikes.0.i102.f2243a81U6siKy" class=""></path><path d="M649.8 394.2v-62.3h-62.3v-49.8H438v49.8h-62.3v62.3H238.6v348.9h62.3V593.5h37.4v149.6h27V593.5h37.4v149.6h27V593.5H467v149.6h27V593.5h37.4v149.6h27V593.5h37.4v149.6h27V593.5h37.4v149.6h26.9V593.5h37.4v149.6h62.3V394.2z" fill="#c8db8c" p-id="8065" data-spm-anchor-id="a313x.manage_type_mylikes.0.i103.f2243a81U6siKy" class=""></path></svg>