<?xml version="1.0" encoding="UTF-8"?>
<svg xmlns="http://www.w3.org/2000/svg" xmlns:xlink="http://www.w3.org/1999/xlink" width="px" height="40px" viewBox="0 0 48 40" version="1.1">
<g id="surface1">
<path style=" stroke:none;fill-rule:nonzero;fill:rgb(68.627453%,80.392158%,31.37255%);fill-opacity:1;" d="M 42.265625 18.4375 C 41.632812 19.175781 40.527344 19.316406 39.777344 18.738281 C 34.9375 15.117188 29.765625 12.558594 24.015625 12.558594 C 18.230469 12.558594 13.09375 15.117188 8.253906 18.738281 C 7.464844 19.316406 6.398438 19.199219 5.765625 18.4375 C 5.429688 18.039062 5.273438 17.539062 5.351562 16.996094 C 5.410156 16.457031 5.667969 16.019531 6.082031 15.699219 C 11.574219 11.597656 17.5 8.777344 24.054688 8.777344 C 30.613281 8.777344 36.539062 11.578125 42.03125 15.699219 C 42.445312 16.019531 42.71875 16.476562 42.761719 16.996094 C 42.820312 17.539062 42.679688 18.019531 42.34375 18.4375 Z M 42.265625 18.4375 "/>
<path style=" stroke:none;fill-rule:nonzero;fill:rgb(68.627453%,80.392158%,31.37255%);fill-opacity:1;" d="M 23.976562 21.199219 C 27.90625 21.199219 31.304688 22.398438 34.664062 24.816406 C 35.453125 25.375 36.519531 25.238281 37.132812 24.496094 C 37.46875 24.078125 37.625 23.597656 37.546875 23.058594 C 37.488281 22.515625 37.230469 22.078125 36.777344 21.757812 C 32.785156 18.878906 28.636719 17.457031 23.957031 17.457031 C 19.277344 17.457031 15.109375 18.898438 11.140625 21.757812 C 10.683594 22.078125 10.429688 22.496094 10.367188 23.058594 C 10.289062 23.597656 10.449219 24.097656 10.785156 24.496094 C 11.414062 25.238281 12.460938 25.375 13.253906 24.816406 C 16.628906 22.417969 20.046875 21.199219 23.976562 21.199219 Z M 23.976562 29.617188 L 23.898438 29.617188 C 22.042969 29.617188 20.183594 30.175781 18.644531 31.214844 C 17.855469 31.757812 16.828125 31.597656 16.195312 30.875 C 15.820312 30.457031 15.703125 29.9375 15.78125 29.394531 C 15.859375 28.835938 16.117188 28.375 16.589844 28.097656 C 18.742188 26.65625 21.269531 25.855469 23.898438 25.855469 L 24.054688 25.855469 C 26.664062 25.855469 29.210938 26.636719 31.363281 28.097656 C 31.816406 28.417969 32.09375 28.835938 32.171875 29.394531 C 32.253906 29.957031 32.09375 30.457031 31.757812 30.875 C 31.148438 31.597656 30.101562 31.757812 29.308594 31.214844 C 27.769531 30.175781 25.953125 29.617188 24.054688 29.617188 Z M 21.191406 37.074219 C 21.171875 38.117188 21.6875 39.074219 22.554688 39.59375 C 23.425781 40.136719 24.53125 40.136719 25.398438 39.59375 C 26.269531 39.054688 26.78125 38.117188 26.761719 37.074219 C 26.703125 35.554688 25.476562 34.355469 23.976562 34.355469 C 22.476562 34.355469 21.25 35.554688 21.191406 37.074219 Z M 21.191406 37.074219 "/>
</g>
</svg>
