<?xml version="1.0" encoding="UTF-8"?>
<svg xmlns="http://www.w3.org/2000/svg" xmlns:xlink="http://www.w3.org/1999/xlink" width="px" height="40px" viewBox="0 0 48 40" version="1.1">
<g id="surface1">
<path style=" stroke:none;fill-rule:nonzero;fill:rgb(85.882354%,85.882354%,85.882354%);fill-opacity:1;" d="M 42.273438 14.421875 C 41.640625 15.179688 40.535156 15.300781 39.761719 14.71875 C 34.921875 11.101562 29.769531 8.539062 23.980469 8.539062 C 18.191406 8.539062 13.058594 11.101562 8.21875 14.71875 C 7.425781 15.300781 6.339844 15.179688 5.707031 14.441406 C 5.351562 14.019531 5.214844 13.539062 5.273438 13 C 5.332031 12.460938 5.589844 12.019531 6.003906 11.699219 C 11.496094 7.601562 17.441406 4.800781 23.980469 4.800781 C 30.519531 4.800781 36.464844 7.601562 41.957031 11.699219 C 42.390625 12.019531 42.628906 12.460938 42.6875 13 C 42.746094 13.539062 42.628906 14.019531 42.273438 14.421875 Z M 42.273438 14.421875 "/>
<path style=" stroke:none;fill-rule:nonzero;fill:rgb(85.882354%,85.882354%,85.882354%);fill-opacity:1;" d="M 24 17.199219 C 27.929688 17.199219 31.328125 18.398438 34.6875 20.820312 C 35.476562 21.378906 36.542969 21.261719 37.15625 20.519531 C 37.511719 20.101562 37.648438 19.621094 37.589844 19.078125 C 37.53125 18.539062 37.253906 18.101562 36.820312 17.78125 C 32.828125 14.921875 28.679688 13.480469 24 13.480469 C 19.320312 13.480469 15.152344 14.921875 11.179688 17.78125 C 10.746094 18.101562 10.488281 18.539062 10.410156 19.078125 C 10.351562 19.621094 10.488281 20.121094 10.84375 20.519531 C 11.476562 21.261719 12.542969 21.398438 13.3125 20.820312 C 16.652344 18.421875 20.050781 17.199219 24 17.199219 Z M 24 25.621094 L 23.921875 25.621094 C 22.042969 25.621094 20.226562 26.179688 18.6875 27.21875 C 17.894531 27.738281 16.867188 27.601562 16.257812 26.878906 C 15.902344 26.460938 15.742188 25.960938 15.820312 25.398438 C 15.902344 24.839844 16.179688 24.398438 16.632812 24.101562 C 18.785156 22.660156 21.3125 21.878906 23.921875 21.878906 L 24.058594 21.878906 C 26.667969 21.878906 29.214844 22.660156 31.347656 24.101562 C 31.800781 24.398438 32.078125 24.859375 32.15625 25.398438 C 32.238281 25.960938 32.078125 26.460938 31.722656 26.878906 C 31.109375 27.601562 30.0625 27.738281 29.292969 27.21875 C 27.753906 26.179688 25.9375 25.621094 24.058594 25.621094 Z M 21.214844 33.078125 C 21.175781 34.121094 21.707031 35.078125 22.578125 35.601562 C 23.445312 36.121094 24.554688 36.121094 25.421875 35.601562 C 26.292969 35.078125 26.824219 34.101562 26.785156 33.078125 C 26.726562 31.558594 25.5 30.359375 24 30.359375 C 22.5 30.359375 21.253906 31.558594 21.214844 33.078125 Z M 21.214844 33.078125 "/>
<path style=" stroke:none;fill-rule:nonzero;fill:rgb(96.078432%,42.352942%,42.352942%);fill-opacity:1;" d="M 33.085938 26.078125 C 29.945312 26.078125 27.398438 28.660156 27.398438 31.839844 C 27.398438 35.019531 29.945312 37.601562 33.085938 37.601562 C 36.226562 37.601562 38.773438 35.019531 38.773438 31.839844 C 38.773438 28.660156 36.226562 26.078125 33.085938 26.078125 Z M 35.515625 33.558594 C 35.714844 33.761719 35.714844 34.101562 35.515625 34.300781 C 35.320312 34.5 34.984375 34.5 34.785156 34.300781 L 33.085938 32.578125 L 31.386719 34.300781 C 31.191406 34.5 30.855469 34.5 30.65625 34.300781 C 30.460938 34.101562 30.460938 33.761719 30.65625 33.558594 L 32.355469 31.839844 L 30.65625 30.121094 C 30.460938 29.921875 30.460938 29.578125 30.65625 29.378906 C 30.855469 29.179688 31.191406 29.179688 31.386719 29.378906 L 33.085938 31.101562 L 34.785156 29.378906 C 34.984375 29.179688 35.320312 29.179688 35.515625 29.378906 C 35.714844 29.578125 35.714844 29.921875 35.515625 30.121094 L 33.816406 31.839844 Z M 35.515625 33.558594 "/>
</g>
</svg>
