<?xml version="1.0" standalone="no"?><!DOCTYPE svg PUBLIC "-//W3C//DTD SVG 1.1//EN" "http://www.w3.org/Graphics/SVG/1.1/DTD/svg11.dtd"><svg t="1752285281589" class="icon" viewBox="0 0 1242 1024" version="1.1" xmlns="http://www.w3.org/2000/svg" p-id="3013" data-spm-anchor-id="a313x.manage_type_mylikes.0.i37.f2243a81U6siKy" xmlns:xlink="http://www.w3.org/1999/xlink" width="242.578125" height="200"><path d="M1095.543057 472.004999c-16.381952 18.941632-45.050369 22.525184-64.503937 7.67904-125.424322-92.660417-259.551556-158.188226-408.524934-158.188226-149.99725 0-283.100612 65.527809-408.524935 158.188226-20.47744 14.846144-48.121985 11.774528-64.503937-7.67904-8.702912-10.23872-12.7984-23.03712-10.750656-36.859392 1.535808-13.822272 8.190976-25.084864 18.941632-33.275841 142.31821-104.946882 295.899013-177.129859 465.861768-177.129858s323.543557 71.671041 465.861767 177.129858c10.750656 8.190976 17.91776 19.965504 18.941632 33.275841 1.535808 13.822272-2.047744 26.108736-10.750656 36.859392h-2.047744z" fill="#afcd50" p-id="3014" data-spm-anchor-id="a313x.manage_type_mylikes.0.i33.f2243a81U6siKy" class="selected"></path><path d="M621.490314 542.652168c101.875266 0 189.928259 30.71616 276.95738 92.660418 20.47744 14.334208 48.121985 10.750656 63.992001-8.190976 8.702912-10.750656 12.7984-23.03712 10.750656-36.859393-1.535808-13.822272-8.190976-25.084864-19.965504-33.27584C849.813773 483.267592 742.307212 446.920135 620.978378 446.920135s-229.347332 36.859393-332.246469 110.066242c-11.774528 8.190976-18.429696 18.941632-19.965505 33.27584-2.047744 13.822272 2.047744 26.620672 10.750656 36.859393 16.381952 18.941632 43.514561 22.525184 63.992001 8.190976 87.541057-61.432321 176.105987-92.660417 277.981253-92.660418z m0 215.52506h-2.047744c-48.121985 0-96.24397 14.334208-136.174978 40.95488-20.47744 13.822272-47.098113 9.726784-63.480065-8.702912-9.726784-10.750656-12.7984-24.060992-10.750657-37.883264 2.047744-14.334208 8.702912-26.108736 20.989377-33.275841 55.801025-36.859393 121.328834-57.336833 189.416323-57.336833h4.095488c67.575553 0 133.615298 19.965504 189.416323 57.336833 11.774528 8.190976 18.941632 18.941632 20.989376 33.275841 2.047744 14.334208-2.047744 27.132608-10.750656 37.883264-15.870016 18.429696-43.002625 22.525184-63.480065 8.702912-39.931009-26.620672-87.029121-40.954881-136.174978-40.95488h-2.047744z m-72.182977 190.952131c-0.511936 26.620672 12.7984 51.193601 35.323584 64.503937 22.525184 13.822272 51.193601 13.822272 73.718785 0s35.835521-37.883265 35.323585-64.503937c-1.535808-38.907137-33.275841-69.623297-72.182977-69.623297s-70.647169 30.71616-72.182977 69.623297z" fill="#afcd50" p-id="3015" data-spm-anchor-id="a313x.manage_type_mylikes.0.i34.f2243a81U6siKy" class="selected"></path></svg>