<?xml version="1.0" encoding="UTF-8"?>
<svg xmlns="http://www.w3.org/2000/svg" xmlns:xlink="http://www.w3.org/1999/xlink" width="px" height="40px" viewBox="0 0 48 40" version="1.1">
<g id="surface1">
<path style=" stroke:none;fill-rule:nonzero;fill:rgb(85.882354%,85.882354%,85.882354%);fill-opacity:1;" d="M 42.273438 18.421875 C 41.640625 19.179688 40.535156 19.300781 39.761719 18.71875 C 34.921875 15.101562 29.769531 12.539062 23.980469 12.539062 C 18.191406 12.539062 13.058594 15.101562 8.21875 18.71875 C 7.425781 19.300781 6.339844 19.179688 5.707031 18.441406 C 5.351562 18.019531 5.214844 17.539062 5.273438 17 C 5.332031 16.460938 5.589844 16.019531 6.003906 15.699219 C 11.496094 11.601562 17.441406 8.800781 23.980469 8.800781 C 30.519531 8.800781 36.464844 11.601562 41.957031 15.699219 C 42.390625 16.019531 42.628906 16.460938 42.6875 17 C 42.746094 17.539062 42.628906 18.019531 42.273438 18.421875 Z M 42.273438 18.421875 "/>
<path style=" stroke:none;fill-rule:nonzero;fill:rgb(85.882354%,85.882354%,85.882354%);fill-opacity:1;" d="M 24 21.199219 C 27.929688 21.199219 31.328125 22.398438 34.6875 24.820312 C 35.476562 25.378906 36.542969 25.261719 37.15625 24.519531 C 37.511719 24.101562 37.648438 23.621094 37.589844 23.078125 C 37.53125 22.539062 37.253906 22.101562 36.820312 21.78125 C 32.828125 18.921875 28.679688 17.480469 24 17.480469 C 19.320312 17.480469 15.152344 18.921875 11.179688 21.78125 C 10.746094 22.101562 10.488281 22.539062 10.410156 23.078125 C 10.351562 23.621094 10.488281 24.121094 10.84375 24.519531 C 11.476562 25.261719 12.542969 25.398438 13.3125 24.820312 C 16.652344 22.421875 20.050781 21.199219 24 21.199219 Z M 24 21.199219 "/>
<path style=" stroke:none;fill-rule:nonzero;fill:rgb(96.078432%,42.352942%,42.352942%);fill-opacity:1;" d="M 24 29.621094 L 23.921875 29.621094 C 22.042969 29.621094 20.226562 30.179688 18.6875 31.21875 C 17.894531 31.738281 16.867188 31.601562 16.257812 30.878906 C 15.902344 30.460938 15.742188 29.960938 15.820312 29.398438 C 15.902344 28.839844 16.179688 28.398438 16.632812 28.101562 C 18.785156 26.660156 21.3125 25.878906 23.921875 25.878906 L 24.058594 25.878906 C 26.667969 25.878906 29.214844 26.660156 31.347656 28.101562 C 31.800781 28.398438 32.078125 28.859375 32.15625 29.398438 C 32.238281 29.960938 32.078125 30.460938 31.722656 30.878906 C 31.109375 31.601562 30.0625 31.738281 29.292969 31.21875 C 27.753906 30.179688 25.9375 29.621094 24.058594 29.621094 Z M 21.214844 37.078125 C 21.175781 38.121094 21.707031 39.078125 22.578125 39.601562 C 23.445312 40.121094 24.554688 40.121094 25.421875 39.601562 C 26.292969 39.078125 26.824219 38.101562 26.785156 37.078125 C 26.726562 35.558594 25.5 34.359375 24 34.359375 C 22.5 34.359375 21.253906 35.558594 21.214844 37.078125 Z M 21.214844 37.078125 "/>
</g>
</svg>
