<?xml version="1.0" standalone="no"?><!DOCTYPE svg PUBLIC "-//W3C//DTD SVG 1.1//EN" "http://www.w3.org/Graphics/SVG/1.1/DTD/svg11.dtd"><svg t="1752285098692" class="icon" viewBox="0 0 1243 1024" version="1.1" xmlns="http://www.w3.org/2000/svg" p-id="2182" xmlns:xlink="http://www.w3.org/1999/xlink" width="242.7734375" height="200"><path d="M1095.68 369.152c-16.384 19.456-45.056 22.528-65.024 7.68-125.44-92.672-259.072-158.208-409.088-158.208S338.432 284.16 212.992 376.832c-20.48 14.848-48.64 11.776-65.024-7.168-9.216-10.752-12.8-23.04-11.264-36.864s8.192-25.088 18.944-33.28C297.984 194.56 452.096 122.88 621.568 122.88s323.584 71.68 465.92 176.64c11.264 8.192 17.408 19.456 18.944 33.28s-1.536 26.112-10.752 36.352z" fill="#DBDBDB" p-id="2183"></path><path d="M622.08 440.32c101.888 0 189.952 30.72 276.992 92.672 20.48 14.336 48.128 11.264 64-7.68 9.216-10.752 12.8-23.04 11.264-36.864s-8.704-25.088-19.968-33.28c-103.424-73.216-210.944-110.08-332.288-110.08s-229.376 36.864-332.288 110.08c-11.264 8.192-17.92 19.456-19.968 33.28-1.536 13.824 2.048 26.624 11.264 36.864 16.384 18.944 44.032 22.528 64 7.68 86.528-61.44 174.592-92.672 276.992-92.672zM622.08 655.872h-2.048c-48.64 0-95.744 14.336-135.68 40.96-20.48 13.312-47.104 9.728-62.976-8.704-9.216-10.752-13.312-23.552-11.264-37.888 2.048-14.336 9.216-25.6 20.992-33.28 55.808-36.864 121.344-56.832 188.928-56.832h3.584c67.584 0 133.632 19.968 188.928 56.832 11.776 7.68 18.944 19.456 20.992 33.28 2.048 14.336-2.048 27.136-11.264 37.888-15.872 18.432-43.008 22.016-62.976 8.704-39.936-26.624-87.04-40.96-135.68-40.96h-1.536z" fill="#DBDBDB" p-id="2184"></path><path d="M549.888 846.848c-1.024 26.624 12.8 51.2 35.328 64.512s51.2 13.312 73.728 0 36.352-38.4 35.328-64.512c-1.536-38.912-33.28-69.632-72.192-69.632s-71.168 30.72-72.192 69.632z" fill="#E85B5B" p-id="2185"></path></svg>