<?xml version="1.0" encoding="UTF-8"?>
<svg xmlns="http://www.w3.org/2000/svg" xmlns:xlink="http://www.w3.org/1999/xlink" width="px" height="40px" viewBox="0 0 48 40" version="1.1">
<g id="surface1">
<path style=" stroke:none;fill-rule:nonzero;fill:rgb(85.882354%,85.882354%,85.882354%);fill-opacity:1;" d="M 42.292969 18.441406 C 41.640625 19.199219 40.554688 19.320312 39.761719 18.738281 C 34.921875 15.121094 29.75 12.578125 24 12.578125 C 18.25 12.578125 13.058594 15.121094 8.21875 18.738281 C 7.445312 19.320312 6.339844 19.199219 5.707031 18.441406 L 5.6875 18.421875 C 5.332031 18.019531 5.195312 17.539062 5.253906 16.980469 C 5.3125 16.441406 5.570312 16 5.984375 15.679688 C 11.515625 11.578125 17.441406 8.800781 23.980469 8.800781 C 30.519531 8.800781 36.464844 11.601562 41.957031 15.699219 C 42.390625 16.019531 42.628906 16.460938 42.6875 17 C 42.746094 17.539062 42.605469 18.019531 42.25 18.441406 Z M 42.292969 18.441406 "/>
<path style=" stroke:none;fill-rule:nonzero;fill:rgb(90.196079%,63.529414%,23.529412%);fill-opacity:1;" d="M 24 21.21875 C 27.929688 21.21875 31.328125 22.421875 34.6875 24.839844 C 35.457031 25.398438 36.542969 25.28125 37.175781 24.539062 L 37.195312 24.519531 C 37.550781 24.101562 37.6875 23.621094 37.628906 23.078125 C 37.570312 22.539062 37.292969 22.101562 36.859375 21.78125 C 32.867188 18.921875 28.703125 17.480469 24.039062 17.480469 C 19.359375 17.480469 15.210938 18.921875 11.21875 21.78125 C 10.785156 22.101562 10.507812 22.539062 10.449219 23.078125 C 10.390625 23.621094 10.527344 24.101562 10.882812 24.519531 L 10.902344 24.539062 C 11.535156 25.28125 12.601562 25.421875 13.394531 24.839844 C 16.730469 22.441406 20.128906 21.21875 24.078125 21.21875 Z M 24 29.621094 L 23.921875 29.621094 C 22.042969 29.621094 20.226562 30.179688 18.6875 31.21875 C 17.894531 31.761719 16.867188 31.601562 16.257812 30.878906 C 15.902344 30.460938 15.761719 29.960938 15.820312 29.398438 C 15.902344 28.839844 16.179688 28.398438 16.632812 28.101562 C 18.785156 26.660156 21.3125 25.878906 23.921875 25.878906 L 24.078125 25.878906 C 26.6875 25.878906 29.234375 26.660156 31.367188 28.101562 C 31.820312 28.398438 32.097656 28.839844 32.179688 29.398438 C 32.257812 29.960938 32.097656 30.460938 31.742188 30.878906 C 31.132812 31.601562 30.082031 31.761719 29.3125 31.21875 C 27.773438 30.179688 25.957031 29.621094 24.078125 29.621094 Z M 21.214844 37.078125 C 21.175781 38.101562 21.707031 39.078125 22.578125 39.601562 C 23.445312 40.121094 24.554688 40.121094 25.421875 39.601562 C 26.292969 39.078125 26.824219 38.101562 26.785156 37.078125 C 26.726562 35.558594 25.5 34.359375 24 34.359375 C 22.5 34.359375 21.273438 35.558594 21.214844 37.078125 Z M 21.214844 37.078125 "/>
</g>
</svg>
