<?xml version="1.0" encoding="UTF-8"?>
<svg xmlns="http://www.w3.org/2000/svg" xmlns:xlink="http://www.w3.org/1999/xlink" width="px" height="40px" viewBox="0 0 40 40" version="1.1">
<g id="surface1">
<path style=" stroke:none;fill-rule:nonzero;fill:rgb(54.11765%,54.11765%,54.11765%);fill-opacity:1;" d="M 40 18.75 L 35 18.75 L 35 12.5 L 32.5 12.5 L 32.5 18.75 L 21.25 18.75 L 21.25 12.5 L 18.75 12.5 L 18.75 18.75 L 7.5 18.75 L 7.5 12.5 L 5 12.5 L 5 18.75 L 0 18.75 L 0 21.25 L 11.25 21.25 L 11.25 27.5 L 13.75 27.5 L 13.75 21.25 L 25 21.25 L 25 27.5 L 27.5 27.5 L 27.5 21.25 L 40 21.25 Z M 40 18.75 "/>
<path style=" stroke:none;fill-rule:nonzero;fill:rgb(85.882354%,85.882354%,85.882354%);fill-opacity:1;" d="M 22.5 13.75 L 17.5 13.75 C 16.125 13.75 15 12.625 15 11.25 L 15 6.25 C 15 4.875 16.125 3.75 17.5 3.75 L 22.5 3.75 C 23.875 3.75 25 4.875 25 6.25 L 25 11.25 C 25 12.625 23.875 13.75 22.5 13.75 Z M 36.25 13.75 L 31.25 13.75 C 29.875 13.75 28.75 12.625 28.75 11.25 L 28.75 6.25 C 28.75 4.875 29.875 3.75 31.25 3.75 L 36.25 3.75 C 37.625 3.75 38.75 4.875 38.75 6.25 L 38.75 11.25 C 38.75 12.625 37.625 13.75 36.25 13.75 Z M 8.75 13.75 L 3.75 13.75 C 2.375 13.75 1.25 12.625 1.25 11.25 L 1.25 6.25 C 1.25 4.875 2.375 3.75 3.75 3.75 L 8.75 3.75 C 10.125 3.75 11.25 4.875 11.25 6.25 L 11.25 11.25 C 11.25 12.625 10.125 13.75 8.75 13.75 Z M 15 36.25 L 10 36.25 C 8.625 36.25 7.5 35.125 7.5 33.75 L 7.5 28.75 C 7.5 27.375 8.625 26.25 10 26.25 L 15 26.25 C 16.375 26.25 17.5 27.375 17.5 28.75 L 17.5 33.75 C 17.5 35.125 16.375 36.25 15 36.25 Z M 28.75 36.25 L 23.75 36.25 C 22.375 36.25 21.25 35.125 21.25 33.75 L 21.25 28.75 C 21.25 27.375 22.375 26.25 23.75 26.25 L 28.75 26.25 C 30.125 26.25 31.25 27.375 31.25 28.75 L 31.25 33.75 C 31.25 35.125 30.125 36.25 28.75 36.25 Z M 28.75 36.25 "/>
</g>
</svg>
