<?xml version="1.0" standalone="no"?><!DOCTYPE svg PUBLIC "-//W3C//DTD SVG 1.1//EN" "http://www.w3.org/Graphics/SVG/1.1/DTD/svg11.dtd"><svg t="1752285711301" class="icon" viewBox="0 0 1024 1024" version="1.1" xmlns="http://www.w3.org/2000/svg" p-id="5832" xmlns:xlink="http://www.w3.org/1999/xlink" width="200" height="200"><path d="M1024 480h-128v-160h-64v160h-288v-160h-64v160H192v-160H128v160H0v64h288v160h64v-160h288v160h64v-160h320z" fill="#8a8a8a" p-id="5833" data-spm-anchor-id="a313x.manage_type_mylikes.0.i81.f2243a81U6siKy" class=""></path><path d="M576 352h-128c-35.2 0-64-28.8-64-64V160c0-35.2 28.8-64 64-64h128c35.2 0 64 28.8 64 64v128c0 35.2-28.8 64-64 64zM928 352h-128c-35.2 0-64-28.8-64-64V160c0-35.2 28.8-64 64-64h128c35.2 0 64 28.8 64 64v128c0 35.2-28.8 64-64 64zM224 352H96c-35.2 0-64-28.8-64-64V160c0-35.2 28.8-64 64-64h128c35.2 0 64 28.8 64 64v128c0 35.2-28.8 64-64 64zM384 928H256c-35.2 0-64-28.8-64-64v-128c0-35.2 28.8-64 64-64h128c35.2 0 64 28.8 64 64v128c0 35.2-28.8 64-64 64zM736 928h-128c-35.2 0-64-28.8-64-64v-128c0-35.2 28.8-64 64-64h128c35.2 0 64 28.8 64 64v128c0 35.2-28.8 64-64 64z" fill="#dbdbdb" p-id="5834" data-spm-anchor-id="a313x.manage_type_mylikes.0.i82.f2243a81U6siKy" class=""></path></svg>