<?xml version="1.0" encoding="UTF-8"?>
<svg xmlns="http://www.w3.org/2000/svg" xmlns:xlink="http://www.w3.org/1999/xlink" width="px" height="40px" viewBox="0 0 40 39" version="1.1">
<defs>
<filter id="alpha" filterUnits="objectBoundingBox" x="0%" y="0%" width="100%" height="100%">
  <feColorMatrix type="matrix" in="SourceGraphic" values="0 0 0 0 1 0 0 0 0 1 0 0 0 0 1 0 0 0 1 0"/>
</filter>
<mask id="mask0">
  <g filter="url(#alpha)">
<rect x="0" y="0" width="40" height="39" style="fill:rgb(0%,0%,0%);fill-opacity:0.2;stroke:none;"/>
  </g>
</mask>
<clipPath id="clip1">
  <rect x="0" y="0" width="40" height="39"/>
</clipPath>
<g id="surface5" clip-path="url(#clip1)">
<path style=" stroke:none;fill-rule:nonzero;fill:rgb(81.176472%,81.568629%,81.960785%);fill-opacity:1;" d="M 5.824219 24.257812 C 5.824219 31.980469 12.171875 38.238281 19.996094 38.238281 C 27.824219 38.238281 34.171875 31.980469 34.171875 24.257812 C 34.171875 16.535156 27.824219 10.273438 19.996094 10.273438 C 12.171875 10.273438 5.824219 16.535156 5.824219 24.257812 Z M 5.824219 24.257812 "/>
</g>
<mask id="mask1">
  <g filter="url(#alpha)">
<rect x="0" y="0" width="40" height="39" style="fill:rgb(0%,0%,0%);fill-opacity:0.2;stroke:none;"/>
  </g>
</mask>
<clipPath id="clip2">
  <rect x="0" y="0" width="40" height="39"/>
</clipPath>
<g id="surface8" clip-path="url(#clip2)">
<path style=" stroke:none;fill-rule:nonzero;fill:rgb(69.411767%,70.588237%,70.980394%);fill-opacity:1;" d="M 21.226562 13.519531 C 21.78125 13.910156 22.480469 13.996094 23.070312 13.746094 C 23.65625 13.496094 24.039062 12.945312 24.074219 12.304688 C 24.105469 11.664062 23.785156 11.03125 23.234375 10.640625 C 22.679688 10.25 21.980469 10.164062 21.390625 10.414062 C 20.804688 10.667969 20.421875 11.214844 20.386719 11.855469 C 20.355469 12.496094 20.675781 13.132812 21.226562 13.519531 Z M 21.226562 13.519531 "/>
</g>
<mask id="mask2">
  <g filter="url(#alpha)">
<rect x="0" y="0" width="40" height="39" style="fill:rgb(0%,0%,0%);fill-opacity:0.2;stroke:none;"/>
  </g>
</mask>
<clipPath id="clip3">
  <rect x="0" y="0" width="40" height="39"/>
</clipPath>
<g id="surface11" clip-path="url(#clip3)">
<path style=" stroke:none;fill-rule:nonzero;fill:rgb(68.627453%,80.392158%,31.37255%);fill-opacity:1;" d="M 21.542969 13.1875 C 22.3125 13.703125 23.332031 13.582031 23.816406 12.917969 C 24.304688 12.253906 24.078125 11.296875 23.308594 10.78125 C 22.539062 10.265625 21.519531 10.390625 21.03125 11.054688 C 20.542969 11.71875 20.769531 12.671875 21.542969 13.1875 Z M 21.542969 13.1875 "/>
</g>
<mask id="mask3">
  <g filter="url(#alpha)">
<rect x="0" y="0" width="40" height="39" style="fill:rgb(0%,0%,0%);fill-opacity:0.2;stroke:none;"/>
  </g>
</mask>
<clipPath id="clip4">
  <rect x="0" y="0" width="40" height="39"/>
</clipPath>
<g id="surface14" clip-path="url(#clip4)">
<path style=" stroke:none;fill-rule:nonzero;fill:rgb(69.411767%,70.588237%,70.980394%);fill-opacity:1;" d="M 6.035156 26.320312 C 6.367188 26.578125 6.976562 26.417969 7.398438 25.960938 C 7.816406 25.503906 7.890625 24.921875 7.554688 24.664062 C 7.222656 24.40625 6.613281 24.566406 6.191406 25.023438 C 5.773438 25.480469 5.703125 26.0625 6.035156 26.320312 Z M 6.035156 26.320312 "/>
</g>
<mask id="mask4">
  <g filter="url(#alpha)">
<rect x="0" y="0" width="40" height="39" style="fill:rgb(0%,0%,0%);fill-opacity:0.2;stroke:none;"/>
  </g>
</mask>
<clipPath id="clip5">
  <rect x="0" y="0" width="40" height="39"/>
</clipPath>
<g id="surface17" clip-path="url(#clip5)">
<path style=" stroke:none;fill-rule:nonzero;fill:rgb(68.627453%,80.392158%,31.37255%);fill-opacity:1;" d="M 6.007812 26.515625 C 6.199219 26.679688 6.507812 26.671875 6.816406 26.496094 C 7.125 26.320312 7.390625 26.003906 7.507812 25.664062 C 7.625 25.324219 7.578125 25.015625 7.390625 24.851562 C 7.199219 24.6875 6.890625 24.691406 6.582031 24.867188 C 6.269531 25.042969 6.007812 25.359375 5.890625 25.699219 C 5.769531 26.039062 5.816406 26.351562 6.007812 26.515625 Z M 6.007812 26.515625 "/>
</g>
<mask id="mask5">
  <g filter="url(#alpha)">
<rect x="0" y="0" width="40" height="39" style="fill:rgb(0%,0%,0%);fill-opacity:0.2;stroke:none;"/>
  </g>
</mask>
<clipPath id="clip6">
  <rect x="0" y="0" width="40" height="39"/>
</clipPath>
<g id="surface20" clip-path="url(#clip6)">
<path style=" stroke:none;fill-rule:nonzero;fill:rgb(69.411767%,70.588237%,70.980394%);fill-opacity:1;" d="M 13.257812 36.859375 C 14.191406 37.515625 15.375 37.660156 16.363281 37.238281 C 17.351562 36.816406 17.996094 35.890625 18.050781 34.8125 C 18.109375 33.734375 17.570312 32.664062 16.640625 32.007812 C 15.707031 31.351562 14.527344 31.207031 13.539062 31.628906 C 12.550781 32.050781 11.90625 32.976562 11.847656 34.054688 C 11.789062 35.136719 12.328125 36.203125 13.257812 36.859375 Z M 13.257812 36.859375 "/>
</g>
<mask id="mask6">
  <g filter="url(#alpha)">
<rect x="0" y="0" width="40" height="39" style="fill:rgb(0%,0%,0%);fill-opacity:0.2;stroke:none;"/>
  </g>
</mask>
<clipPath id="clip7">
  <rect x="0" y="0" width="40" height="39"/>
</clipPath>
<g id="surface23" clip-path="url(#clip7)">
<path style=" stroke:none;fill-rule:nonzero;fill:rgb(68.627453%,80.392158%,31.37255%);fill-opacity:1;" d="M 13.644531 36.320312 C 14.554688 36.9375 15.703125 37.078125 16.652344 36.6875 C 17.601562 36.296875 18.210938 35.433594 18.25 34.421875 C 18.285156 33.414062 17.75 32.40625 16.839844 31.789062 C 15.925781 31.167969 14.78125 31.027344 13.832031 31.417969 C 12.878906 31.808594 12.273438 32.671875 12.234375 33.683594 C 12.195312 34.695312 12.734375 35.699219 13.644531 36.320312 Z M 13.644531 36.320312 "/>
</g>
<mask id="mask7">
  <g filter="url(#alpha)">
<rect x="0" y="0" width="40" height="39" style="fill:rgb(0%,0%,0%);fill-opacity:0.2;stroke:none;"/>
  </g>
</mask>
<clipPath id="clip8">
  <rect x="0" y="0" width="40" height="39"/>
</clipPath>
<g id="surface26" clip-path="url(#clip8)">
<path style=" stroke:none;fill-rule:nonzero;fill:rgb(69.411767%,70.588237%,70.980394%);fill-opacity:1;" d="M 32.34375 23.308594 C 32.867188 23.992188 33.496094 24.515625 33.992188 24.679688 C 34.488281 24.84375 34.777344 24.625 34.75 24.105469 C 34.726562 23.585938 34.386719 22.84375 33.863281 22.160156 C 33.339844 21.476562 32.710938 20.953125 32.214844 20.789062 C 31.71875 20.625 31.425781 20.84375 31.453125 21.363281 C 31.480469 21.882812 31.820312 22.625 32.34375 23.308594 Z M 32.34375 23.308594 "/>
</g>
<mask id="mask8">
  <g filter="url(#alpha)">
<rect x="0" y="0" width="40" height="39" style="fill:rgb(0%,0%,0%);fill-opacity:0.2;stroke:none;"/>
  </g>
</mask>
<clipPath id="clip9">
  <rect x="0" y="0" width="40" height="39"/>
</clipPath>
<g id="surface29" clip-path="url(#clip9)">
<path style=" stroke:none;fill-rule:nonzero;fill:rgb(68.627453%,80.392158%,31.37255%);fill-opacity:1;" d="M 32.472656 23.769531 C 32.960938 24.417969 33.554688 24.910156 34.023438 25.0625 C 34.492188 25.214844 34.773438 25.003906 34.753906 24.503906 C 34.734375 24.007812 34.417969 23.300781 33.929688 22.652344 C 33.4375 22 32.847656 21.507812 32.375 21.355469 C 31.90625 21.203125 31.628906 21.417969 31.648438 21.914062 C 31.667969 22.410156 31.980469 23.117188 32.472656 23.769531 Z M 32.472656 23.769531 "/>
</g>
<mask id="mask9">
  <g filter="url(#alpha)">
<rect x="0" y="0" width="40" height="39" style="fill:rgb(0%,0%,0%);fill-opacity:0.2;stroke:none;"/>
  </g>
</mask>
<clipPath id="clip10">
  <rect x="0" y="0" width="40" height="39"/>
</clipPath>
<g id="surface32" clip-path="url(#clip10)">
<path style=" stroke:none;fill-rule:nonzero;fill:rgb(69.411767%,70.588237%,70.980394%);fill-opacity:1;" d="M 28.503906 32.734375 C 28.777344 33.101562 29.371094 33.203125 30.058594 33 C 30.75 32.796875 31.429688 32.320312 31.84375 31.75 C 32.257812 31.183594 32.34375 30.605469 32.070312 30.238281 C 31.796875 29.871094 31.203125 29.769531 30.515625 29.972656 C 29.828125 30.171875 29.148438 30.648438 28.730469 31.21875 C 28.316406 31.789062 28.230469 32.367188 28.503906 32.734375 Z M 28.503906 32.734375 "/>
</g>
<mask id="mask10">
  <g filter="url(#alpha)">
<rect x="0" y="0" width="40" height="39" style="fill:rgb(0%,0%,0%);fill-opacity:0.2;stroke:none;"/>
  </g>
</mask>
<clipPath id="clip11">
  <rect x="0" y="0" width="40" height="39"/>
</clipPath>
<g id="surface35" clip-path="url(#clip11)">
<path style=" stroke:none;fill-rule:nonzero;fill:rgb(68.627453%,80.392158%,31.37255%);fill-opacity:1;" d="M 28.683594 32.765625 C 29.078125 33.292969 30.160156 33.191406 31.097656 32.535156 C 32.039062 31.878906 32.480469 30.921875 32.085938 30.394531 C 31.828125 30.054688 31.269531 29.964844 30.617188 30.160156 C 29.960938 30.355469 29.316406 30.808594 28.914062 31.347656 C 28.515625 31.882812 28.429688 32.425781 28.683594 32.765625 Z M 28.683594 32.765625 "/>
</g>
<mask id="mask11">
  <g filter="url(#alpha)">
<rect x="0" y="0" width="40" height="39" style="fill:rgb(0%,0%,0%);fill-opacity:0.2;stroke:none;"/>
  </g>
</mask>
<clipPath id="clip12">
  <rect x="0" y="0" width="40" height="39"/>
</clipPath>
<g id="surface38" clip-path="url(#clip12)">
<path style=" stroke:none;fill-rule:nonzero;fill:rgb(69.411767%,70.588237%,70.980394%);fill-opacity:1;" d="M 31.542969 28.15625 C 31.785156 28.15625 32.011719 28.03125 32.132812 27.828125 C 32.257812 27.625 32.261719 27.371094 32.140625 27.160156 C 32.023438 26.953125 31.796875 26.828125 31.554688 26.824219 C 31.3125 26.824219 31.089844 26.949219 30.964844 27.152344 C 30.839844 27.355469 30.839844 27.609375 30.957031 27.820312 C 31.078125 28.027344 31.300781 28.152344 31.542969 28.15625 Z M 31.542969 28.15625 "/>
</g>
<mask id="mask12">
  <g filter="url(#alpha)">
<rect x="0" y="0" width="40" height="39" style="fill:rgb(0%,0%,0%);fill-opacity:0.2;stroke:none;"/>
  </g>
</mask>
<clipPath id="clip13">
  <rect x="0" y="0" width="40" height="39"/>
</clipPath>
<g id="surface41" clip-path="url(#clip13)">
<path style=" stroke:none;fill-rule:nonzero;fill:rgb(100%,100%,100%);fill-opacity:1;" d="M 31.640625 28.15625 C 31.960938 28.160156 32.226562 27.863281 32.230469 27.496094 C 32.230469 27.128906 31.972656 26.828125 31.652344 26.824219 C 31.332031 26.820312 31.066406 27.117188 31.0625 27.484375 C 31.0625 27.851562 31.320312 28.152344 31.640625 28.15625 Z M 31.640625 28.15625 "/>
</g>
<mask id="mask13">
  <g filter="url(#alpha)">
<rect x="0" y="0" width="40" height="39" style="fill:rgb(0%,0%,0%);fill-opacity:0.2;stroke:none;"/>
  </g>
</mask>
<clipPath id="clip14">
  <rect x="0" y="0" width="40" height="39"/>
</clipPath>
<g id="surface44" clip-path="url(#clip14)">
<path style=" stroke:none;fill-rule:nonzero;fill:rgb(69.411767%,70.588237%,70.980394%);fill-opacity:1;" d="M 15.738281 23.429688 C 15.789062 23.800781 16.039062 24.117188 16.390625 24.265625 C 16.746094 24.414062 17.148438 24.367188 17.449219 24.144531 C 17.75 23.917969 17.90625 23.550781 17.851562 23.179688 C 17.796875 22.808594 17.550781 22.492188 17.195312 22.34375 C 16.84375 22.195312 16.4375 22.242188 16.136719 22.46875 C 15.835938 22.691406 15.683594 23.058594 15.738281 23.429688 Z M 15.738281 23.429688 "/>
</g>
<mask id="mask14">
  <g filter="url(#alpha)">
<rect x="0" y="0" width="40" height="39" style="fill:rgb(0%,0%,0%);fill-opacity:0.2;stroke:none;"/>
  </g>
</mask>
<clipPath id="clip15">
  <rect x="0" y="0" width="40" height="39"/>
</clipPath>
<g id="surface47" clip-path="url(#clip15)">
<path style=" stroke:none;fill-rule:nonzero;fill:rgb(68.627453%,80.392158%,31.37255%);fill-opacity:1;" d="M 15.929688 23.425781 C 15.980469 23.796875 16.207031 24.117188 16.527344 24.265625 C 16.84375 24.414062 17.222656 24.367188 17.488281 24.144531 C 17.761719 23.921875 17.902344 23.554688 17.851562 23.183594 C 17.804688 22.8125 17.574219 22.492188 17.253906 22.34375 C 16.9375 22.195312 16.558594 22.242188 16.292969 22.464844 C 16.019531 22.6875 15.882812 23.054688 15.929688 23.425781 Z M 15.929688 23.425781 "/>
</g>
<mask id="mask15">
  <g filter="url(#alpha)">
<rect x="0" y="0" width="40" height="39" style="fill:rgb(0%,0%,0%);fill-opacity:0.2;stroke:none;"/>
  </g>
</mask>
<clipPath id="clip16">
  <rect x="0" y="0" width="40" height="39"/>
</clipPath>
<g id="surface50" clip-path="url(#clip16)">
<path style=" stroke:none;fill-rule:nonzero;fill:rgb(69.411767%,70.588237%,70.980394%);fill-opacity:1;" d="M 10.40625 19.292969 C 10.84375 19.71875 11.582031 19.691406 12.054688 19.226562 C 12.523438 18.765625 12.550781 18.042969 12.113281 17.613281 C 11.832031 17.339844 11.40625 17.242188 11.003906 17.363281 C 10.59375 17.488281 10.273438 17.800781 10.148438 18.203125 C 10.023438 18.601562 10.125 19.015625 10.40625 19.292969 Z M 10.40625 19.292969 "/>
</g>
<mask id="mask16">
  <g filter="url(#alpha)">
<rect x="0" y="0" width="40" height="39" style="fill:rgb(0%,0%,0%);fill-opacity:0.2;stroke:none;"/>
  </g>
</mask>
<clipPath id="clip17">
  <rect x="0" y="0" width="40" height="39"/>
</clipPath>
<g id="surface53" clip-path="url(#clip17)">
<path style=" stroke:none;fill-rule:nonzero;fill:rgb(68.627453%,80.392158%,31.37255%);fill-opacity:1;" d="M 10.566406 19.324219 C 10.824219 19.574219 11.210938 19.660156 11.582031 19.542969 C 11.960938 19.425781 12.253906 19.136719 12.375 18.765625 C 12.492188 18.402344 12.40625 18.023438 12.148438 17.773438 C 11.894531 17.519531 11.503906 17.4375 11.132812 17.554688 C 10.757812 17.671875 10.460938 17.960938 10.339844 18.332031 C 10.222656 18.695312 10.308594 19.074219 10.566406 19.324219 Z M 10.566406 19.324219 "/>
</g>
<mask id="mask17">
  <g filter="url(#alpha)">
<rect x="0" y="0" width="40" height="39" style="fill:rgb(0%,0%,0%);fill-opacity:0.2;stroke:none;"/>
  </g>
</mask>
<clipPath id="clip18">
  <rect x="0" y="0" width="40" height="39"/>
</clipPath>
<g id="surface56" clip-path="url(#clip18)">
<path style=" stroke:none;fill-rule:nonzero;fill:rgb(69.411767%,70.588237%,70.980394%);fill-opacity:1;" d="M 25.976562 20.078125 C 26.152344 20.214844 26.453125 20.191406 26.765625 20.019531 C 27.074219 19.851562 27.351562 19.558594 27.484375 19.25 C 27.617188 18.945312 27.59375 18.675781 27.414062 18.542969 C 27.238281 18.40625 26.9375 18.429688 26.625 18.597656 C 26.316406 18.769531 26.042969 19.0625 25.90625 19.367188 C 25.773438 19.671875 25.800781 19.945312 25.976562 20.078125 Z M 25.976562 20.078125 "/>
</g>
<mask id="mask18">
  <g filter="url(#alpha)">
<rect x="0" y="0" width="40" height="39" style="fill:rgb(0%,0%,0%);fill-opacity:0.2;stroke:none;"/>
  </g>
</mask>
<clipPath id="clip19">
  <rect x="0" y="0" width="40" height="39"/>
</clipPath>
<g id="surface59" clip-path="url(#clip19)">
<path style=" stroke:none;fill-rule:nonzero;fill:rgb(68.627453%,80.392158%,31.37255%);fill-opacity:1;" d="M 26.132812 20.082031 C 26.265625 20.214844 26.5 20.1875 26.742188 20.015625 C 26.984375 19.84375 27.199219 19.550781 27.304688 19.246094 C 27.414062 18.9375 27.394531 18.671875 27.261719 18.539062 C 27.125 18.40625 26.890625 18.429688 26.648438 18.601562 C 26.40625 18.777344 26.191406 19.070312 26.085938 19.375 C 25.980469 19.679688 25.996094 19.949219 26.132812 20.082031 Z M 26.132812 20.082031 "/>
</g>
<mask id="mask19">
  <g filter="url(#alpha)">
<rect x="0" y="0" width="40" height="39" style="fill:rgb(0%,0%,0%);fill-opacity:0.2;stroke:none;"/>
  </g>
</mask>
<clipPath id="clip20">
  <rect x="0" y="0" width="40" height="39"/>
</clipPath>
<g id="surface62" clip-path="url(#clip20)">
<path style=" stroke:none;fill-rule:nonzero;fill:rgb(69.411767%,70.588237%,70.980394%);fill-opacity:1;" d="M 17.542969 18.035156 C 17.621094 18.09375 17.753906 18.085938 17.890625 18.007812 C 18.03125 17.933594 18.152344 17.800781 18.210938 17.667969 C 18.273438 17.53125 18.261719 17.410156 18.183594 17.351562 C 18.101562 17.292969 17.96875 17.300781 17.832031 17.375 C 17.691406 17.453125 17.570312 17.582031 17.511719 17.71875 C 17.453125 17.855469 17.464844 17.976562 17.542969 18.035156 Z M 17.542969 18.035156 "/>
</g>
<mask id="mask20">
  <g filter="url(#alpha)">
<rect x="0" y="0" width="40" height="39" style="fill:rgb(0%,0%,0%);fill-opacity:0.2;stroke:none;"/>
  </g>
</mask>
<clipPath id="clip21">
  <rect x="0" y="0" width="40" height="39"/>
</clipPath>
<g id="surface65" clip-path="url(#clip21)">
<path style=" stroke:none;fill-rule:nonzero;fill:rgb(68.627453%,80.392158%,31.37255%);fill-opacity:1;" d="M 17.894531 18.035156 C 17.933594 18.09375 18 18.082031 18.070312 18.007812 C 18.136719 17.929688 18.199219 17.800781 18.230469 17.664062 C 18.261719 17.527344 18.253906 17.410156 18.21875 17.351562 C 18.179688 17.289062 18.113281 17.300781 18.042969 17.378906 C 17.972656 17.457031 17.914062 17.585938 17.882812 17.722656 C 17.851562 17.855469 17.855469 17.976562 17.894531 18.035156 Z M 17.894531 18.035156 "/>
</g>
<mask id="mask21">
  <g filter="url(#alpha)">
<rect x="0" y="0" width="40" height="39" style="fill:rgb(0%,0%,0%);fill-opacity:0.2;stroke:none;"/>
  </g>
</mask>
<clipPath id="clip22">
  <rect x="0" y="0" width="40" height="39"/>
</clipPath>
<g id="surface68" clip-path="url(#clip22)">
<path style=" stroke:none;fill-rule:nonzero;fill:rgb(69.411767%,70.588237%,70.980394%);fill-opacity:1;" d="M 23.097656 36.058594 C 23.621094 36.226562 24.136719 36.144531 24.246094 35.878906 C 24.359375 35.609375 24.023438 35.257812 23.496094 35.089844 C 23.160156 34.984375 22.808594 34.976562 22.574219 35.070312 C 22.34375 35.167969 22.269531 35.351562 22.375 35.554688 C 22.484375 35.761719 22.757812 35.953125 23.097656 36.058594 Z M 23.097656 36.058594 "/>
</g>
<mask id="mask22">
  <g filter="url(#alpha)">
<rect x="0" y="0" width="40" height="39" style="fill:rgb(0%,0%,0%);fill-opacity:0.2;stroke:none;"/>
  </g>
</mask>
<clipPath id="clip23">
  <rect x="0" y="0" width="40" height="39"/>
</clipPath>
<g id="surface71" clip-path="url(#clip23)">
<path style=" stroke:none;fill-rule:nonzero;fill:rgb(68.627453%,80.392158%,31.37255%);fill-opacity:1;" d="M 23.101562 36.054688 C 23.441406 36.167969 23.792969 36.175781 24.023438 36.082031 C 24.253906 35.988281 24.328125 35.804688 24.21875 35.601562 C 24.109375 35.398438 23.832031 35.203125 23.492188 35.09375 C 23.152344 34.984375 22.804688 34.976562 22.574219 35.070312 C 22.34375 35.164062 22.269531 35.347656 22.375 35.550781 C 22.484375 35.753906 22.761719 35.945312 23.101562 36.054688 Z M 23.101562 36.054688 "/>
</g>
<mask id="mask23">
  <g filter="url(#alpha)">
<rect x="0" y="0" width="40" height="39" style="fill:rgb(0%,0%,0%);fill-opacity:0.2;stroke:none;"/>
  </g>
</mask>
<clipPath id="clip24">
  <rect x="0" y="0" width="40" height="39"/>
</clipPath>
<g id="surface74" clip-path="url(#clip24)">
<path style=" stroke:none;fill-rule:nonzero;fill:rgb(68.627453%,80.392158%,31.37255%);fill-opacity:1;" d="M 10.941406 27.355469 C 11.019531 27.417969 11.152344 27.40625 11.292969 27.332031 C 11.429688 27.253906 11.550781 27.125 11.609375 26.988281 C 11.671875 26.851562 11.660156 26.734375 11.582031 26.671875 C 11.460938 26.582031 11.21875 26.660156 11.039062 26.847656 C 10.863281 27.035156 10.820312 27.265625 10.941406 27.355469 Z M 10.941406 27.355469 "/>
</g>
<mask id="mask24">
  <g filter="url(#alpha)">
<rect x="0" y="0" width="40" height="39" style="fill:rgb(0%,0%,0%);fill-opacity:0.2;stroke:none;"/>
  </g>
</mask>
<clipPath id="clip25">
  <rect x="0" y="0" width="40" height="39"/>
</clipPath>
<g id="surface77" clip-path="url(#clip25)">
<path style=" stroke:none;fill-rule:nonzero;fill:rgb(100%,100%,100%);fill-opacity:1;" d="M 11.101562 27.359375 C 11.160156 27.449219 11.28125 27.367188 11.367188 27.179688 C 11.457031 26.988281 11.480469 26.761719 11.421875 26.671875 C 11.382812 26.613281 11.316406 26.625 11.246094 26.699219 C 11.179688 26.777344 11.117188 26.90625 11.085938 27.042969 C 11.054688 27.179688 11.0625 27.300781 11.101562 27.359375 Z M 11.101562 27.359375 "/>
</g>
<mask id="mask25">
  <g filter="url(#alpha)">
<rect x="0" y="0" width="40" height="39" style="fill:rgb(0%,0%,0%);fill-opacity:0.2;stroke:none;"/>
  </g>
</mask>
<clipPath id="clip26">
  <rect x="0" y="0" width="40" height="39"/>
</clipPath>
<g id="surface80" clip-path="url(#clip26)">
<path style=" stroke:none;fill-rule:nonzero;fill:rgb(60.000002%,60.000002%,60.000002%);fill-opacity:1;" d="M 20 39 C 11.753906 39 5.046875 32.429688 5.046875 24.351562 C 5.046875 16.273438 11.753906 9.703125 20 9.703125 C 28.242188 9.703125 34.945312 16.273438 34.945312 24.351562 C 34.945312 32.429688 28.242188 39 20 39 Z M 20 11.222656 C 12.609375 11.222656 6.601562 17.113281 6.601562 24.351562 C 6.601562 31.589844 12.609375 37.480469 20 37.480469 C 27.386719 37.480469 33.394531 31.589844 33.394531 24.351562 C 33.394531 17.113281 27.386719 11.222656 20 11.222656 Z M 20 11.222656 "/>
</g>
<mask id="mask26">
  <g filter="url(#alpha)">
<rect x="0" y="0" width="40" height="39" style="fill:rgb(0%,0%,0%);fill-opacity:0.2;stroke:none;"/>
  </g>
</mask>
<clipPath id="clip27">
  <rect x="0" y="0" width="40" height="39"/>
</clipPath>
<g id="surface83" clip-path="url(#clip27)">
<path style=" stroke:none;fill-rule:nonzero;fill:rgb(69.411767%,70.588237%,70.980394%);fill-opacity:1;" d="M 24.816406 30.246094 C 24.921875 30.261719 25.023438 30.101562 25.042969 29.890625 C 25.0625 29.679688 24.992188 29.5 24.886719 29.488281 C 24.78125 29.476562 24.679688 29.636719 24.660156 29.847656 C 24.640625 30.054688 24.710938 30.234375 24.816406 30.246094 Z M 24.816406 30.246094 "/>
</g>
<mask id="mask27">
  <g filter="url(#alpha)">
<rect x="0" y="0" width="40" height="39" style="fill:rgb(0%,0%,0%);fill-opacity:0.2;stroke:none;"/>
  </g>
</mask>
<clipPath id="clip28">
  <rect x="0" y="0" width="40" height="39"/>
</clipPath>
<g id="surface86" clip-path="url(#clip28)">
<path style=" stroke:none;fill-rule:nonzero;fill:rgb(84.705883%,11.764706%,2.352941%);fill-opacity:1;" d="M 8.214844 34.433594 C 4.128906 34.433594 1.039062 33.460938 0.214844 31.1875 C -0.648438 28.8125 1.097656 25.902344 5.125 23.003906 C 5.347656 22.839844 5.640625 22.808594 5.894531 22.917969 C 6.148438 23.027344 6.324219 23.261719 6.355469 23.53125 C 6.382812 23.800781 6.265625 24.066406 6.042969 24.230469 C 2.664062 26.660156 1.074219 29.011719 1.679688 30.679688 C 2.699219 33.492188 11.363281 34 22.164062 30.230469 C 27.171875 28.484375 31.625 26.167969 34.699219 23.707031 C 37.53125 21.445312 38.851562 19.324219 38.332031 17.894531 C 37.847656 16.566406 35.113281 15.84375 30.800781 15.933594 L 30.785156 15.933594 C 30.363281 15.925781 30.023438 15.59375 30.019531 15.179688 C 30.011719 14.765625 30.347656 14.425781 30.769531 14.410156 C 36.003906 14.3125 39.046875 15.308594 39.796875 17.382812 C 40.5625 19.488281 39.101562 22.152344 35.683594 24.886719 C 32.472656 27.453125 27.855469 29.859375 22.683594 31.664062 C 17.734375 33.390625 12.441406 34.433594 8.214844 34.433594 Z M 11.90625 12.59375 C 11.640625 12.59375 11.394531 12.460938 11.25 12.242188 L 10.367188 10.878906 C 10.214844 10.652344 10.199219 10.359375 10.324219 10.117188 C 10.453125 9.871094 10.703125 9.714844 10.984375 9.703125 C 11.261719 9.691406 11.527344 9.828125 11.675781 10.058594 L 12.5625 11.421875 C 12.714844 11.65625 12.722656 11.953125 12.585938 12.195312 C 12.453125 12.441406 12.191406 12.59375 11.90625 12.59375 Z M 11.90625 12.59375 "/>
</g>
<mask id="mask28">
  <g filter="url(#alpha)">
<rect x="0" y="0" width="40" height="39" style="fill:rgb(0%,0%,0%);fill-opacity:0.2;stroke:none;"/>
  </g>
</mask>
<clipPath id="clip29">
  <rect x="0" y="0" width="40" height="39"/>
</clipPath>
<g id="surface89" clip-path="url(#clip29)">
<path style=" stroke:none;fill-rule:nonzero;fill:rgb(60.000002%,60.000002%,60.000002%);fill-opacity:1;" d="M 6.398438 29.105469 C 6.050781 29.105469 5.746094 28.882812 5.648438 28.558594 C 5.25 27.214844 5.046875 25.820312 5.046875 24.421875 C 5.046875 16.304688 11.777344 9.703125 20.046875 9.703125 C 27.132812 9.703125 33.3125 14.640625 34.738281 21.441406 C 34.800781 21.710938 34.710938 21.996094 34.5 22.179688 C 34.289062 22.363281 33.996094 22.421875 33.726562 22.335938 C 33.460938 22.246094 33.265625 22.023438 33.214844 21.75 C 31.9375 15.652344 26.398438 11.226562 20.046875 11.226562 C 12.632812 11.226562 6.605469 17.144531 6.605469 24.417969 C 6.601562 25.671875 6.785156 26.921875 7.144531 28.125 C 7.210938 28.359375 7.164062 28.605469 7.019531 28.800781 C 6.871094 28.992188 6.640625 29.105469 6.394531 29.105469 Z M 6.398438 29.105469 "/>
</g>
<mask id="mask29">
  <g filter="url(#alpha)">
<rect x="0" y="0" width="40" height="39" style="fill:rgb(0%,0%,0%);fill-opacity:0.2;stroke:none;"/>
  </g>
</mask>
<clipPath id="clip30">
  <rect x="0" y="0" width="40" height="39"/>
</clipPath>
<g id="surface92" clip-path="url(#clip30)">
<path style=" stroke:none;fill-rule:nonzero;fill:rgb(84.705883%,11.764706%,2.352941%);fill-opacity:1;" d="M 8.308594 8.289062 C 7.664062 8.289062 7.082031 7.90625 6.835938 7.316406 C 6.585938 6.726562 6.722656 6.050781 7.179688 5.597656 C 7.632812 5.148438 8.320312 5.011719 8.917969 5.257812 C 9.511719 5.5 9.902344 6.074219 9.902344 6.714844 C 9.898438 7.582031 9.1875 8.289062 8.308594 8.289062 Z M 6.382812 10.652344 C 4.683594 10.652344 3.300781 9.289062 3.300781 7.605469 C 3.292969 7.320312 3.441406 7.054688 3.691406 6.90625 C 3.941406 6.761719 4.25 6.761719 4.5 6.90625 C 4.75 7.054688 4.898438 7.320312 4.890625 7.605469 C 4.894531 8.417969 5.558594 9.078125 6.382812 9.082031 C 6.671875 9.074219 6.945312 9.222656 7.089844 9.46875 C 7.234375 9.714844 7.234375 10.019531 7.089844 10.265625 C 6.945312 10.511719 6.671875 10.660156 6.382812 10.652344 Z M 6.382812 10.652344 "/>
</g>
<mask id="mask30">
  <g filter="url(#alpha)">
<rect x="0" y="0" width="40" height="39" style="fill:rgb(0%,0%,0%);fill-opacity:0.2;stroke:none;"/>
  </g>
</mask>
<clipPath id="clip31">
  <rect x="0" y="0" width="40" height="39"/>
</clipPath>
<g id="surface95" clip-path="url(#clip31)">
<path style=" stroke:none;fill-rule:nonzero;fill:rgb(84.705883%,11.764706%,2.352941%);fill-opacity:1;" d="M 6.4375 12.933594 C 3.207031 12.929688 0.585938 10.328125 0.582031 7.109375 C 0.574219 6.835938 0.71875 6.578125 0.960938 6.4375 C 1.199219 6.296875 1.496094 6.296875 1.734375 6.4375 C 1.976562 6.578125 2.121094 6.835938 2.113281 7.109375 C 2.113281 9.488281 4.050781 11.414062 6.4375 11.414062 C 6.714844 11.410156 6.976562 11.550781 7.113281 11.789062 C 7.253906 12.027344 7.253906 12.324219 7.113281 12.5625 C 6.976562 12.796875 6.714844 12.941406 6.4375 12.9375 Z M 11.992188 7.003906 C 11.933594 7.003906 11.875 6.996094 11.820312 6.984375 C 11.410156 6.886719 11.152344 6.480469 11.246094 6.070312 C 11.425781 5.300781 10.945312 4.535156 10.175781 4.359375 C 9.902344 4.300781 9.683594 4.101562 9.605469 3.839844 C 9.519531 3.578125 9.585938 3.292969 9.777344 3.089844 C 9.964844 2.890625 10.25 2.808594 10.519531 2.875 C 11.285156 3.050781 11.949219 3.523438 12.367188 4.1875 C 12.78125 4.855469 12.914062 5.652344 12.738281 6.414062 C 12.65625 6.757812 12.347656 7.003906 11.992188 7.003906 Z M 11.992188 7.003906 "/>
</g>
<mask id="mask31">
  <g filter="url(#alpha)">
<rect x="0" y="0" width="40" height="39" style="fill:rgb(0%,0%,0%);fill-opacity:0.2;stroke:none;"/>
  </g>
</mask>
<clipPath id="clip32">
  <rect x="0" y="0" width="40" height="39"/>
</clipPath>
<g id="surface98" clip-path="url(#clip32)">
<path style=" stroke:none;fill-rule:nonzero;fill:rgb(84.705883%,11.764706%,2.352941%);fill-opacity:1;" d="M 14.609375 7.609375 C 14.550781 7.609375 14.488281 7.601562 14.429688 7.589844 C 14.226562 7.542969 14.050781 7.421875 13.9375 7.25 C 13.828125 7.078125 13.792969 6.871094 13.839844 6.671875 C 14.109375 5.5625 13.90625 4.390625 13.28125 3.421875 C 12.65625 2.453125 11.660156 1.761719 10.507812 1.503906 C 10.085938 1.40625 9.824219 1 9.921875 0.589844 C 10.019531 0.183594 10.441406 -0.0742188 10.863281 0.0195312 C 12.421875 0.367188 13.773438 1.300781 14.621094 2.613281 C 15.464844 3.921875 15.738281 5.511719 15.375 7.019531 C 15.292969 7.363281 14.976562 7.609375 14.609375 7.609375 Z M 14.609375 7.609375 "/>
</g>
</defs>
<g id="surface1">
<use xlink:href="#surface5" mask="url(#mask0)"/>
<use xlink:href="#surface8" mask="url(#mask1)"/>
<use xlink:href="#surface11" mask="url(#mask2)"/>
<use xlink:href="#surface14" mask="url(#mask3)"/>
<use xlink:href="#surface17" mask="url(#mask4)"/>
<use xlink:href="#surface20" mask="url(#mask5)"/>
<use xlink:href="#surface23" mask="url(#mask6)"/>
<use xlink:href="#surface26" mask="url(#mask7)"/>
<use xlink:href="#surface29" mask="url(#mask8)"/>
<use xlink:href="#surface32" mask="url(#mask9)"/>
<use xlink:href="#surface35" mask="url(#mask10)"/>
<use xlink:href="#surface38" mask="url(#mask11)"/>
<use xlink:href="#surface41" mask="url(#mask12)"/>
<use xlink:href="#surface44" mask="url(#mask13)"/>
<use xlink:href="#surface47" mask="url(#mask14)"/>
<use xlink:href="#surface50" mask="url(#mask15)"/>
<use xlink:href="#surface53" mask="url(#mask16)"/>
<use xlink:href="#surface56" mask="url(#mask17)"/>
<use xlink:href="#surface59" mask="url(#mask18)"/>
<use xlink:href="#surface62" mask="url(#mask19)"/>
<use xlink:href="#surface65" mask="url(#mask20)"/>
<use xlink:href="#surface68" mask="url(#mask21)"/>
<use xlink:href="#surface71" mask="url(#mask22)"/>
<use xlink:href="#surface74" mask="url(#mask23)"/>
<use xlink:href="#surface77" mask="url(#mask24)"/>
<use xlink:href="#surface80" mask="url(#mask25)"/>
<use xlink:href="#surface83" mask="url(#mask26)"/>
<use xlink:href="#surface86" mask="url(#mask27)"/>
<use xlink:href="#surface89" mask="url(#mask28)"/>
<use xlink:href="#surface92" mask="url(#mask29)"/>
<use xlink:href="#surface95" mask="url(#mask30)"/>
<use xlink:href="#surface98" mask="url(#mask31)"/>
</g>
</svg>
