<?xml version="1.0" standalone="no"?><!DOCTYPE svg PUBLIC "-//W3C//DTD SVG 1.1//EN" "http://www.w3.org/Graphics/SVG/1.1/DTD/svg11.dtd"><svg t="1752284852506" class="icon" viewBox="0 0 1024 1024" version="1.1" xmlns="http://www.w3.org/2000/svg" p-id="1444" xmlns:xlink="http://www.w3.org/1999/xlink" width="200" height="200"><path d="M603.207824 1.441291a410.786293 410.786293 0 0 0-325.657758 159.853907 457.572803 457.572803 0 0 1 142.761679-22.728044c252.854106 0 457.831496 204.97739 457.831496 457.831496a457.369544 457.369544 0 0 1-22.173701 141.135608 410.693903 410.693903 0 0 0 158.652832-324.641463C1014.659328 185.649313 830.451306 1.441291 603.207824 1.441291z" fill="#afcd50" p-id="1445" data-spm-anchor-id="a313x.manage_type_mylikes.0.i0.f2243a81U6siKy" class="selected"></path><path d="M420.75522 183.746071C193.363914 183.746071 7.32656 369.783424 7.32656 597.17473s186.037353 413.428659 413.42866 413.428659 413.428659-186.055831 413.428659-413.428659S648.146525 183.746071 420.75522 183.746071z m-126.334663 68.904776c-20.658498 25.259541-39.044192 57.411408-55.120126 94.23823a245.758522 245.758522 0 0 1-50.44517-34.535539c32.151867-25.259541 66.521104-45.936518 105.639208-59.702691z m-140.100836 91.873036c18.385694 18.367216 41.335475 32.151867 66.613494 45.936517-18.478084 55.120126-27.569302 117.132577-29.860584 183.746071H53.263078c6.892325-89.581753 43.645235-169.998376 101.056643-229.682588zM55.554361 620.142989h137.809553a749.711316 749.711316 0 0 0 29.860584 183.74607c-25.259541 13.784651-48.2278 27.550824-66.521104 45.91804-59.795081-59.665734-96.547991-140.100835-101.149033-229.66411z m133.3009 261.834455c13.766173-11.493368 32.151867-22.968259 50.519083-34.461628 16.075933 36.75291 34.461627 68.904777 55.120125 94.238231-39.118105-13.840085-73.561254-34.517062-105.639208-59.776603z m208.9317 78.162297c-48.2278-11.493368-89.581753-62.012451-119.442338-133.208511 36.75291-13.784651 75.760146-20.676976 119.442338-22.968258z m0-202.113287c-48.2278 2.291282-94.23823 11.47489-133.20851 27.550824-13.784651-48.2278-22.986737-105.657686-25.27802-165.360377h160.759334v137.809553z m0-183.746071h-160.759334c2.291282-59.721169 11.47489-117.151055 25.259541-165.378855a417.309057 417.309057 0 0 0 133.226988 27.569302v137.809553z m0-183.74607c-43.645235-2.309761-82.689427-11.493368-119.442338-22.968259 29.860584-71.214537 71.214537-119.442337 119.442338-133.226988z m254.997564-78.106863c-13.784651 11.493368-32.151867 22.968259-50.519083 34.461627-16.094411-36.75291-34.461627-68.904777-55.138604-94.23823 39.044192 13.766173 73.50582 34.443149 105.657687 59.702691z m-209.061047-78.162297c48.2278 11.493368 89.581753 62.012451 119.423859 133.226988-36.734432 13.784651-75.760146 20.658498-119.423859 22.968259z m0 202.131765c48.2278-2.309761 94.23823-11.493368 133.20851-27.569302 13.784651 48.2278 22.968259 105.657686 25.27802 165.378855h-160.759334v-137.809553z m0 183.746071h160.759334c-2.291282 59.702691-11.493368 117.132577-25.259541 165.360376a416.902539 416.902539 0 0 0-133.226988-27.550823v-137.809553z m0 339.996752v-156.250682c43.645235 2.291282 82.689427 11.47489 119.423859 22.968259-29.842106 73.487341-71.251493 121.715142-119.423859 133.282423z m103.347926-18.478085c20.676976-25.278019 39.044192-57.429886 55.138604-94.23823a246.479167 246.479167 0 0 1 50.44517 34.554018c-32.077954 25.259541-66.521104 45.936518-105.583774 59.684212z m140.119314-91.891513c-18.385694-18.367216-41.353953-32.133389-66.613494-45.91804 18.367216-55.120126 27.569302-117.151055 29.860584-183.746071h137.809553c-6.892325 89.563275-43.645235 169.998376-101.056643 229.664111z m-36.75291-275.563672a749.563491 749.563491 0 0 0-29.860584-183.746071c25.259541-13.784651 48.2278-27.569302 66.613494-45.936517 57.411408 59.721169 96.4556 140.100835 101.056643 229.682588zM604.50129 0c-133.20851 0-250.359565 62.012451-326.156667 160.759334a427.970911 427.970911 0 0 1 107.967447-20.658499c-4.601043-2.291282-9.239042-6.892325-13.784651-9.239042 32.151867-25.278019 66.521104-45.936518 105.657687-59.721168-16.075933 18.367216-29.860584 43.645235-43.645236 68.904776 16.075933 0 32.151867 2.291282 48.227801 4.582565 27.606258-50.463648 62.012451-82.523125 101.056643-91.762167V169.998376c16.075933 6.892325 32.151867 11.47489 45.936518 20.658498V52.865799c48.246278 11.47489 89.581753 62.012451 119.442337 133.20851a284.562499 284.562499 0 0 1-89.581753 20.676977c18.478084 11.47489 36.75291 22.968259 52.828843 36.734431 18.385694-4.582565 36.75291-9.239042 52.828843-16.075933 9.239042 27.569302 13.784651 57.429886 18.367216 87.29047a414.149304 414.149304 0 0 1 66.613494 121.73362h119.442337c-4.601043 87.271992-41.353953 163.069094-96.474078 222.790263-4.601043 27.550824-9.239042 55.120126-18.367216 80.379667 98.765361-75.760146 160.759334-192.929679 160.759334-326.138189C1017.911471 186.074309 831.874118 0.036956 604.482812 0.036956z m126.334663 68.904777c39.044192 13.784651 73.487341 34.443149 105.639208 59.721168-13.766173 11.47489-32.151867 22.949781-50.519083 34.443149-13.784651-36.75291-32.151867-68.904777-55.120125-94.23823z m103.347926 321.518667a749.563491 749.563491 0 0 0-29.860585-183.746071c25.259541-13.784651 48.246278-27.569302 66.521104-45.954995 57.411408 59.721169 96.4556 140.119314 101.056643 229.701066z m0 0" fill="#414141" p-id="1446"></path></svg>