<?xml version="1.0" encoding="UTF-8"?>
<svg xmlns="http://www.w3.org/2000/svg" xmlns:xlink="http://www.w3.org/1999/xlink" width="px" height="40px" viewBox="0 0 40 40" version="1.1">
<g id="surface1">
<path style=" stroke:none;fill-rule:nonzero;fill:rgb(68.627453%,80.392158%,31.37255%);fill-opacity:1;" d="M 23.5625 0.0546875 C 18.582031 0.0507812 13.882812 2.359375 10.84375 6.300781 C 12.640625 5.710938 14.523438 5.410156 16.417969 5.414062 C 26.296875 5.414062 34.300781 13.417969 34.300781 23.296875 C 34.304688 25.167969 34.011719 27.027344 33.4375 28.808594 C 37.351562 25.765625 39.636719 21.085938 39.632812 16.128906 C 39.636719 7.25 32.441406 0.0546875 23.5625 0.0546875 Z M 23.5625 0.0546875 "/>
<path style=" stroke:none;fill-rule:nonzero;fill:rgb(25.490198%,25.490198%,25.490198%);fill-opacity:1;" d="M 16.4375 7.175781 C 7.554688 7.175781 0.285156 14.445312 0.285156 23.328125 C 0.285156 32.210938 7.554688 39.476562 16.4375 39.476562 C 25.316406 39.476562 32.585938 32.207031 32.585938 23.328125 C 32.585938 14.445312 25.316406 7.175781 16.4375 7.175781 Z M 11.5 9.871094 C 10.695312 10.855469 9.976562 12.113281 9.347656 13.550781 C 8.636719 13.183594 7.976562 12.730469 7.378906 12.203125 C 8.632812 11.214844 9.976562 10.40625 11.503906 9.871094 Z M 6.027344 13.457031 C 6.746094 14.175781 7.644531 14.714844 8.628906 15.253906 C 7.910156 17.40625 7.554688 19.828125 7.464844 22.429688 L 2.082031 22.429688 C 2.351562 18.929688 3.785156 15.789062 6.027344 13.457031 Z M 2.171875 24.222656 L 7.554688 24.222656 C 7.640625 26.65625 8.035156 29.066406 8.71875 31.402344 C 7.734375 31.941406 6.835938 32.476562 6.121094 33.195312 C 3.785156 30.863281 2.351562 27.722656 2.171875 24.222656 Z M 7.378906 34.453125 C 7.914062 34.003906 8.632812 33.554688 9.351562 33.105469 C 9.980469 34.542969 10.695312 35.796875 11.503906 36.789062 C 9.976562 36.246094 8.628906 35.4375 7.378906 34.453125 Z M 15.539062 37.503906 C 13.65625 37.054688 12.039062 35.082031 10.871094 32.300781 C 12.308594 31.761719 13.832031 31.496094 15.539062 31.40625 Z M 15.539062 29.609375 C 13.65625 29.699219 11.855469 30.058594 10.335938 30.6875 C 9.796875 28.800781 9.4375 26.558594 9.347656 24.226562 L 15.628906 24.226562 L 15.628906 29.609375 Z M 15.539062 22.433594 L 9.257812 22.433594 C 9.347656 20.101562 9.707031 17.855469 10.246094 15.972656 C 11.910156 16.613281 13.667969 16.976562 15.449219 17.050781 L 15.449219 22.433594 Z M 15.539062 15.253906 C 13.832031 15.164062 12.308594 14.804688 10.871094 14.359375 C 12.039062 11.578125 13.65625 9.691406 15.539062 9.152344 Z M 25.5 12.203125 C 24.960938 12.652344 24.242188 13.101562 23.527344 13.550781 C 22.898438 12.113281 22.179688 10.859375 21.371094 9.871094 C 22.898438 10.40625 24.242188 11.214844 25.5 12.203125 Z M 17.332031 9.152344 C 19.21875 9.601562 20.832031 11.574219 21.996094 14.355469 C 20.5625 14.894531 19.039062 15.164062 17.332031 15.253906 Z M 17.332031 17.046875 C 19.21875 16.957031 21.015625 16.597656 22.535156 15.96875 C 23.074219 17.855469 23.433594 20.097656 23.523438 22.429688 L 17.246094 22.429688 L 17.246094 17.046875 Z M 17.332031 24.222656 L 23.613281 24.222656 C 23.523438 26.554688 23.164062 28.800781 22.625 30.683594 C 20.960938 30.042969 19.203125 29.679688 17.421875 29.609375 L 17.421875 24.222656 Z M 17.332031 37.503906 L 17.332031 31.402344 C 19.039062 31.492188 20.5625 31.851562 21.996094 32.300781 C 20.832031 35.167969 19.214844 37.054688 17.332031 37.503906 Z M 21.371094 36.785156 C 22.175781 35.796875 22.894531 34.539062 23.523438 33.101562 C 24.234375 33.46875 24.894531 33.921875 25.496094 34.453125 C 24.242188 35.4375 22.894531 36.246094 21.371094 36.785156 Z M 26.84375 33.195312 C 26.125 32.476562 25.226562 31.9375 24.242188 31.402344 C 24.957031 29.246094 25.316406 26.824219 25.40625 24.222656 L 30.789062 24.222656 C 30.523438 27.722656 29.085938 30.863281 26.84375 33.195312 Z M 25.40625 22.429688 C 25.320312 20 24.925781 17.585938 24.242188 15.253906 C 25.226562 14.714844 26.125 14.175781 26.84375 13.457031 C 29.085938 15.789062 30.609375 18.929688 30.789062 22.429688 Z M 23.613281 0 C 18.410156 0 13.832031 2.421875 10.871094 6.28125 C 12.238281 5.832031 13.65625 5.558594 15.089844 5.472656 C 14.910156 5.382812 14.730469 5.203125 14.550781 5.113281 C 15.808594 4.125 17.148438 3.316406 18.679688 2.777344 C 18.050781 3.496094 17.511719 4.484375 16.972656 5.46875 C 17.601562 5.46875 18.230469 5.558594 18.859375 5.648438 C 19.9375 3.679688 21.28125 2.425781 22.804688 2.066406 L 22.804688 6.640625 C 23.433594 6.910156 24.0625 7.089844 24.601562 7.449219 L 24.601562 2.066406 C 26.484375 2.511719 28.097656 4.488281 29.265625 7.269531 C 28.152344 7.726562 26.96875 8 25.765625 8.078125 C 26.488281 8.523438 27.203125 8.972656 27.832031 9.511719 C 28.546875 9.332031 29.265625 9.148438 29.894531 8.882812 C 30.253906 9.960938 30.433594 11.125 30.609375 12.292969 C 31.738281 13.71875 32.621094 15.328125 33.214844 17.046875 L 37.878906 17.046875 C 37.699219 20.457031 36.261719 23.417969 34.109375 25.75 C 33.929688 26.828125 33.75 27.902344 33.394531 28.890625 C 37.25 25.929688 39.671875 21.355469 39.671875 16.152344 C 39.761719 7.269531 32.496094 0 23.613281 0 Z M 28.546875 2.691406 C 30.074219 3.230469 31.417969 4.035156 32.675781 5.023438 C 32.136719 5.472656 31.417969 5.921875 30.703125 6.371094 C 30.164062 4.933594 29.445312 3.679688 28.546875 2.6875 Z M 32.585938 15.25 C 32.496094 12.820312 32.105469 10.40625 31.417969 8.074219 C 32.40625 7.535156 33.304688 6.996094 34.015625 6.277344 C 36.261719 8.609375 37.785156 11.75 37.964844 15.25 Z M 32.585938 15.25 "/>
</g>
</svg>
