<?xml version="1.0" standalone="no"?><!DOCTYPE svg PUBLIC "-//W3C//DTD SVG 1.1//EN" "http://www.w3.org/Graphics/SVG/1.1/DTD/svg11.dtd"><svg t="1752284940731" class="icon" viewBox="0 0 1028 1024" version="1.1" xmlns="http://www.w3.org/2000/svg" p-id="1669" xmlns:xlink="http://www.w3.org/1999/xlink" width="200.78125" height="200"><path d="M149.853659 636.878049c0 202.766985 163.255571 367.141463 364.643902 367.141463s364.643902-164.374478 364.643902-367.141463S715.885893 269.736585 514.497561 269.736585s-364.643902 164.374478-364.643902 367.141464z" fill="#CFD0D1" opacity=".2" p-id="1670"></path><path d="M546.121678 355.018302c14.226107 10.24 32.288468 12.487805 47.388722 5.894244 15.100254-6.588566 24.945639-21.009483 25.82478-37.833053 0.874146-16.823571-7.35282-33.487298-21.578926-43.717308-14.221112-10.24-32.283473-12.487805-47.383727-5.894244-15.100254 6.588566-24.945639 21.009483-25.824781 37.833054-0.874146 16.823571 7.35282 33.487298 21.578927 43.717307z" fill="#B1B4B5" opacity=".2" p-id="1671"></path><path d="M554.20878 346.281834c19.805659 13.5168 46.035044 10.329912 58.587786-7.118049 12.547746-17.442966 6.668488-42.543454-13.137171-56.060253-19.800663-13.5168-46.030049-10.329912-58.58279 7.118048-12.547746 17.442966-6.668488 42.543454 13.137171 56.060254z" fill="#afcd50" opacity=".2" p-id="1672" data-spm-anchor-id="a313x.manage_type_mylikes.0.i17.f2243a81U6siKy" class="selected"></path><path d="M155.24839 691.090107c8.566634 6.783376 24.276293 2.547512 35.085737-9.460761 10.814439-12.008273 12.637659-27.243395 4.071024-34.02677-8.561639-6.783376-24.271298-2.547512-35.080741 9.460761-10.814439 12.008273-12.637659 27.243395-4.071025 34.02677z" fill="#B1B4B5" opacity=".2" p-id="1673"></path><path d="M154.564059 696.200117c4.9152 4.315785 12.847454 4.135961 20.804682-0.469541 7.957229-4.605502 14.730615-12.937366 17.767649-21.863649 3.042029-8.921288 1.883161-17.073327-3.037034-21.384117-4.9152-4.315785-12.847454-4.135961-20.804683 0.469541-7.957229 4.605502-14.730615 12.937366-17.767649 21.863649-3.042029 8.921288-1.883161 17.073327 3.037035 21.384117z" fill="#afcd50" opacity=".2" p-id="1674" data-spm-anchor-id="a313x.manage_type_mylikes.0.i20.f2243a81U6siKy" class="selected"></path><path d="M341.141854 967.834849c23.95161 17.233171 54.376898 21.019473 79.812058 9.920312 25.430166-11.094166 42.008976-35.385444 43.487532-63.717776 1.473561-28.332332-12.372917-56.399922-36.334517-73.638087-23.95161-17.233171-54.376898-21.019473-79.812059-9.920313-25.430166 11.094166-42.008976 35.385444-43.487531 63.717776-1.473561 28.332332 12.372917 56.399922 36.334517 73.638088z" fill="#B1B4B5" opacity=".2" p-id="1675"></path><path d="M351.0272 953.618732c23.442107 16.269112 52.938302 19.970498 77.374439 9.700527 24.436137-10.269971 40.095844-32.947824 41.089873-59.491903 0.994029-26.544078-12.837463-52.918322-36.284566-69.187434-23.442107-16.274107-52.938302-19.980488-77.374439-9.705522-24.436137 10.269971-40.095844 32.947824-41.089873 59.491902-0.994029 26.544078 12.837463 52.918322 36.284566 69.187435z" fill="#afcd50" opacity=".2" p-id="1676" data-spm-anchor-id="a313x.manage_type_mylikes.0.i11.f2243a81U6siKy" class="selected"></path><path d="M832.12238 611.982361c13.461854 17.947473 29.631063 31.664078 42.408586 35.974868 12.787512 4.31079 20.235239-1.4336 19.550907-15.070283s-9.40082-33.087688-22.867668-51.035161c-13.461854-17.947473-29.631063-31.664078-42.408585-35.974868-12.787512-4.31079-20.235239 1.4336-19.550908 15.070283s9.40082 33.087688 22.867668 51.035161z" fill="#B1B4B5" opacity=".2" p-id="1677"></path><path d="M835.424156 624.065561c12.612683 17.058341 27.83282 30.030673 39.936 34.021776 12.10318 3.996098 19.246205-1.598439 18.741698-14.660683-0.504507-13.062244-8.586615-31.619122-21.194303-48.682459-12.612683-17.058341-27.83282-30.030673-39.936-34.021775-12.10318-3.996098-19.246205 1.598439-18.741697 14.660682 0.504507 13.062244 8.586615 31.619122 21.194302 48.682459z" fill="#afcd50" opacity=".2" p-id="1678" data-spm-anchor-id="a313x.manage_type_mylikes.0.i15.f2243a81U6siKy" class="selected"></path><path d="M733.343844 859.460683c7.043122 9.640585 22.298224 12.312976 40.020917 6.998166 17.722693-5.31481 35.21561-17.80761 45.89518-32.768 10.679571-14.96039 12.917385-30.120585 5.874264-39.761171-7.043122-9.650576-22.298224-12.317971-40.020917-7.003161-17.722693 5.31481-35.21561 17.80761-45.895181 32.768-10.679571 14.96039-12.917385 30.120585-5.874263 39.761171z" fill="#B1B4B5" opacity=".2" p-id="1679"></path><path d="M737.979317 860.309854c10.150088 13.846478 37.957932 11.134127 62.119337-6.054088s35.525307-42.343649 25.375219-56.185132c-6.558595-8.956254-20.959532-11.298966-37.778107-6.144-16.81358 5.144976-33.492293 17.00839-43.747278 31.11961-10.254985 14.106224-12.527766 28.312351-5.964176 37.26361z" fill="#afcd50" opacity=".2" p-id="1680" data-spm-anchor-id="a313x.manage_type_mylikes.0.i14.f2243a81U6siKy" class="selected"></path><path d="M811.537483 739.278049a17.507902 17.507902 0 0 0 15.394966-26.099512 17.452956 17.452956 0 0 0-15.055298-8.866342 17.507902 17.507902 0 0 0-15.394966 26.099512 17.452956 17.452956 0 0 0 15.055298 8.866342z" fill="#B1B4B5" opacity=".2" p-id="1681"></path><path d="M814.055024 739.278049c8.276917 0.074927 15.055298-7.687493 15.13522-17.343064 0.079922-9.655571-6.56359-17.542868-14.835512-17.62279-8.276917-0.074927-15.055298 7.687493-15.13522 17.343064-0.079922 9.655571 6.56359 17.542868 14.835512 17.62279z" fill="#FFFFFF" opacity=".2" p-id="1682"></path><path d="M404.864624 615.149268a28.187473 28.187473 0 0 0 16.878517 21.998517c9.091122 3.87122 19.46599 2.637424 27.213425-3.241834a26.953678 26.953678 0 0 0 10.334907-25.245346 28.187473 28.187473 0 0 0-16.878517-22.003512c-9.091122-3.87122-19.46599-2.637424-27.213424 3.241834a26.953678 26.953678 0 0 0-10.334908 25.245346z" fill="#B1B4B5" opacity=".2" p-id="1683"></path><path d="M409.849756 615.074341c1.24878 9.745483 7.123044 18.152273 15.404956 22.048469a22.91762 22.91762 0 0 0 24.725854-3.171903c7.023141-5.854283 10.579668-15.469893 9.320897-25.22037-1.24878-9.745483-7.123044-18.152273-15.404956-22.048469a22.91762 22.91762 0 0 0-24.725853 3.171903c-7.023141 5.854283-10.579668 15.469893-9.320898 25.22037z" fill="#afcd50" opacity=".2" p-id="1684" data-spm-anchor-id="a313x.manage_type_mylikes.0.i19.f2243a81U6siKy" class="selected"></path><path d="M267.738537 506.545327c11.259005 11.229034 30.220488 10.474771 42.358634-1.683356 12.138146-12.163122 12.852449-31.11961 1.598439-42.353639-7.282888-7.262907-18.197229-9.780449-28.637034-6.598556a33.292488 33.292488 0 0 0-21.978537 22.018497c-3.156917 10.439805-0.619395 21.354146 6.663493 28.617054z" fill="#B1B4B5" opacity=".2" p-id="1685"></path><path d="M271.859512 507.419473c6.588566 6.578576 16.558829 8.766439 26.154459 5.74439a31.479259 31.479259 0 0 0 20.355122-20.400078c3.002068-9.595629 0.794224-19.560898-5.794342-26.134478-6.593561-6.578576-16.563824-8.766439-26.159453-5.74439a31.479259 31.479259 0 0 0-20.355122 20.400078c-3.002068 9.595629-0.794224 19.560898 5.794341 26.134478z" fill="#afcd50" opacity=".2" p-id="1686" data-spm-anchor-id="a313x.manage_type_mylikes.0.i18.f2243a81U6siKy" class="selected"></path><path d="M668.307356 527.185171c4.550556 3.536546 12.288 2.957112 20.295181-1.518517 8.002185-4.475629 15.065288-12.168117 18.516917-20.180293 3.456624-8.012176 2.782283-15.125229-1.768274-18.661776-4.550556-3.536546-12.288-2.957112-20.29518 1.518517-8.002185 4.475629-15.065288 12.168117-18.516917 20.180293-3.456624 8.012176-2.782283 15.125229 1.768273 18.661776z" fill="#B1B4B5" opacity=".2" p-id="1687"></path><path d="M672.318439 527.275083c3.486595 3.47161 9.470751 2.817249 15.699668-1.718322 6.233912-4.540566 11.763512-12.263024 14.51083-20.270205 2.747317-8.012176 2.297756-15.080273-1.188839-18.551883-3.486595-3.47161-9.470751-2.817249-15.699669 1.718322-6.233912 4.540566-11.763512 12.263024-14.510829 20.270205-2.747317 8.012176-2.297756 15.080273 1.188839 18.551883z" fill="#afcd50" opacity=".2" p-id="1688" data-spm-anchor-id="a313x.manage_type_mylikes.0.i16.f2243a81U6siKy" class="selected"></path><path d="M451.314263 473.51758c2.023024 1.568468 5.459668 1.313717 9.016196-0.679336 3.561522-1.993054 6.698459-5.409717 8.236956-8.971239 1.538498-3.561522 1.23879-6.723434-0.779239-8.291903-2.023024-1.568468-5.459668-1.313717-9.016196 0.679337-3.561522 1.993054-6.698459 5.409717-8.236956 8.971239-1.538498 3.561522-1.23879 6.723434 0.779239 8.291902z" fill="#B1B4B5" opacity=".2" p-id="1689"></path><path d="M460.40039 473.552546c0.999024 1.548488 2.707356 1.253776 4.48562-0.759258 1.783259-2.018029 3.361717-5.449678 4.145951-9.0112 0.784234-3.556527 0.654361-6.698459-0.339668-8.241951-0.999024-1.548488-2.707356-1.253776-4.48562 0.759258-1.783259 2.018029-3.361717 5.449678-4.145951 9.0112-0.784234 3.556527-0.654361 6.698459 0.339668 8.241951z" fill="#afcd50" opacity=".2" p-id="1690" data-spm-anchor-id="a313x.manage_type_mylikes.0.i23.f2243a81U6siKy" class="selected"></path><path d="M594.269659 946.805385c13.501815 4.375727 26.743883 2.23282 29.581112-4.795317 2.837229-7.018146-5.804332-16.264117-19.301151-20.639844-8.731473-2.832234-17.777639-3.022049-23.731825-0.504507-5.954185 2.517541-7.912273 7.36281-5.13998 12.717581 2.777288 5.34478 9.865366 10.389854 18.596839 13.222087z" fill="#B1B4B5" opacity=".2" p-id="1691"></path><path d="M594.369561 946.710478c8.741463 2.88718 17.782634 3.146927 23.706849 0.684332 5.92921-2.462595 7.852332-7.272898 5.045073-12.622673-2.812254-5.34478-9.925307-10.419824-18.666771-13.307005-8.741463-2.88718-17.772644-3.146927-23.701853-0.684332-5.92921 2.462595-7.852332 7.272898-5.045074 12.622673 2.812254 5.34478 9.925307 10.419824 18.666771 13.307005z" fill="#afcd50" opacity=".2" p-id="1692" data-spm-anchor-id="a313x.manage_type_mylikes.0.i22.f2243a81U6siKy" class="selected"></path><path d="M281.485112 718.278556c2.018029 1.568468 5.454673 1.313717 9.0112-0.679336 3.561522-1.993054 6.698459-5.409717 8.236956-8.97124 1.538498-3.561522 1.23879-6.718439-0.779239-8.291902-3.126946-2.427629-9.340878-0.374634-13.891434 4.580527-4.545561 4.950166-5.704429 10.939317-2.577483 13.361951z" fill="#afcd50" opacity=".2" p-id="1693" data-spm-anchor-id="a313x.manage_type_mylikes.0.i21.f2243a81U6siKy" class="selected"></path><path d="M285.571122 718.313522c1.538498 2.382673 4.645463 0.284722 6.933229-4.69042 2.287766-4.975141 2.897171-10.939317 1.358673-13.32199-0.999024-1.548488-2.707356-1.253776-4.485619 0.759259-1.783259 2.018029-3.361717 5.449678-4.145951 9.0112-0.784234 3.556527-0.654361 6.698459 0.339668 8.241951z" fill="#FFFFFF" opacity=".2" p-id="1694"></path><path d="M514.517541 1024C302.449639 1024 129.873171 851.458498 129.873171 639.380605 129.873171 427.302712 302.454634 254.75122 514.517541 254.75122 726.580449 254.75122 899.121951 427.292722 899.121951 639.380605c0 212.092878-172.531512 384.619395-384.60441 384.619395z m0-729.327766C324.463141 294.672234 169.834146 449.306224 169.834146 639.3856c0 190.07438 154.61401 344.693385 344.6784 344.693385s344.68839-154.619005 344.688391-344.69838c0-190.07438-154.624-344.713366-344.688391-344.713366z" fill="#999999" opacity=".2" p-id="1695"></path><path d="M638.476488 794.20441c2.712351 0.329678 5.31481-3.87122 5.809327-9.380839 0.499512-5.504624-1.298732-10.24-4.006088-10.559688-2.717346-0.329678-5.319805 3.87122-5.814322 9.380839-0.499512 5.504624 1.298732 10.24 4.006088 10.559688z" fill="#B1B4B5" opacity=".2" p-id="1696"></path><path d="M211.383571 904.117073c-105.132332 0-184.634693-25.550049-205.828995-85.201795-22.208312-62.439024 22.662868-138.774478 126.261697-214.950088a19.950517 19.950517 0 0 1 31.664078 13.90642 19.985483 19.985483 0 0 1-8.022166 18.297131c-86.885151 63.87762-127.810185 125.622322-112.275356 169.384586 26.244371 73.852878 249.146693 87.129912 527.005347-11.783493 128.884137-45.85522 243.452254-106.725776 322.584975-171.307707 72.793912-59.392 106.845659-115.037659 93.468722-152.650927-12.457834-34.870946-82.859083-53.837424-193.825717-51.479727h-0.394615a19.980488 19.980488 0 0 1-19.715746-19.790673 19.980488 19.980488 0 0 1 19.321132-20.180293c134.718439-2.597463 212.927063 23.631922 232.273171 78.063766 19.65081 55.296-17.942478 125.252683-105.846635 197.00761-82.624312 67.424156-201.413307 130.582478-334.473365 178.001171-127.265717 45.305756-263.442732 72.674029-372.196527 72.684019zM306.310868 330.632117a19.930537 19.930537 0 0 1-16.853541-9.23598l-22.752781-35.715122a20.005463 20.005463 0 0 1-1.048975-20.080391 19.975493 19.975493 0 0 1 34.706107-1.448585l22.802732 35.710127a20.005463 20.005463 0 0 1 0.694322 20.390088 19.970498 19.970498 0 0 1-17.547864 10.379863z" fill="#d81e06" opacity=".2" p-id="1697" data-spm-anchor-id="a313x.manage_type_mylikes.0.i4.f2243a81U6siKy" class=""></path><path d="M164.589268 764.253659a20.045424 20.045424 0 0 1-19.226224-14.435903A387.551532 387.551532 0 0 1 129.873171 641.183844C129.873171 428.076956 302.979122 254.75122 515.746341 254.75122c182.371902 0 341.346654 129.6384 377.990869 308.273951a20.030439 20.030439 0 1 1-39.231688 8.067122c-32.837932-160.078673-175.31879-276.29518-338.759181-276.295181-190.683785 0-345.822283 155.358283-345.822282 346.32679a347.205932 347.205932 0 0 0 13.841482 97.384898 20.0704 20.0704 0 0 1-3.196878 17.652761 20.010459 20.010459 0 0 1-16.029346 8.017171l0.049951 0.074927z" fill="#999999" opacity=".2" p-id="1698"></path><path d="M213.741268 217.647454c-16.59879 0.004995-31.55918-10.075161-37.912975-25.545054a41.659317 41.659317 0 0 1 8.891317-45.105951 40.760195 40.760195 0 0 1 44.711336-8.976234c15.335024 6.413737 25.325268 21.508995 25.320274 38.252644-0.034966 22.837698-18.377054 41.339629-41.009952 41.374595zM164.254595 279.726829C120.462361 279.676878 84.967024 243.876839 84.917073 199.69998a20.699785 20.699785 0 0 1 10.090147-18.317112 20.320156 20.320156 0 0 1 20.764721 0 20.699785 20.699785 0 0 1 10.085152 18.312117c0.024976 21.379122 17.2032 38.702205 38.392507 38.727181a20.435044 20.435044 0 0 1 18.152273 10.170068 20.814673 20.814673 0 0 1 0 20.954537 20.435044 20.435044 0 0 1-18.152273 10.175063z" fill="#d81e06" opacity=".2" p-id="1699" data-spm-anchor-id="a313x.manage_type_mylikes.0.i10.f2243a81U6siKy" class=""></path><path d="M165.598283 339.613346c-83.118829-0.099902-150.488039-68.483122-150.602927-152.895687a20.05042 20.05042 0 0 1 9.690537-17.717698 19.416039 19.416039 0 0 1 19.955512 0 20.05042 20.05042 0 0 1 9.690536 17.717698C54.396878 249.096741 104.173268 299.647376 165.598283 299.707317a19.610849 19.610849 0 0 1 17.447961 9.845385 20.250224 20.250224 0 0 1 0 20.270205 19.610849 19.610849 0 0 1-17.447961 9.840391v-0.049952z m142.96039-155.732917a18.576859 18.576859 0 0 1-4.470634-0.529483c-10.574673-2.497561-17.158244-13.227083-14.705639-23.966595 4.600507-20.155317-7.757424-40.280663-27.598049-44.956097a19.780683 19.780683 0 0 1-14.700644-13.586732 20.195278 20.195278 0 0 1 4.48562-19.665795 19.470985 19.470985 0 0 1 19.081366-5.644488c19.710751 4.620488 36.794068 17.00839 47.493619 34.436371a78.353483 78.353483 0 0 1 9.545678 58.462907c-2.062985 9.041171-9.990244 15.444917-19.131317 15.449912z" fill="#d81e06" opacity=".2" p-id="1700" data-spm-anchor-id="a313x.manage_type_mylikes.0.i9.f2243a81U6siKy" class=""></path><path d="M375.872937 199.804878c-1.553483 0.004995-3.096976-0.174829-4.610498-0.529483a20.25522 20.25522 0 0 1-12.637659-8.921288 19.765698 19.765698 0 0 1-2.517541-15.130224c6.888273-29.221463 1.718322-59.941463-14.365971-85.4016-16.084293-25.460137-41.75922-43.572449-71.385288-50.340839-10.8544-2.537522-17.59282-13.252059-15.080273-23.976585 2.517541-10.724527 13.336976-17.432976 24.226342-15.010342 40.100839 9.166049 74.866888 33.687102 96.640624 68.158439a151.317229 151.317229 0 0 1 19.431025 115.632078c-2.107941 9.066146-10.274966 15.499863-19.700761 15.519844z" fill="#d81e06" opacity=".2" p-id="1701" data-spm-anchor-id="a313x.manage_type_mylikes.0.i8.f2243a81U6siKy" class=""></path></svg>