<?xml version="1.0" encoding="UTF-8"?>
<svg xmlns="http://www.w3.org/2000/svg" xmlns:xlink="http://www.w3.org/1999/xlink" width="px" height="40px" viewBox="0 0 40 40" version="1.1">
<g id="surface1">
<path style=" stroke:none;fill-rule:nonzero;fill:rgb(54.11765%,54.11765%,54.11765%);fill-opacity:1;" d="M 29.746094 8.769531 C 29.359375 8.410156 28.847656 8.207031 28.316406 8.199219 L 17.160156 8.199219 L 17.160156 10.757812 L 27.675781 10.757812 L 27.675781 20 L 30.375 20 L 30.375 10.15625 C 30.371094 9.625 30.144531 9.121094 29.746094 8.769531 Z M 29.746094 8.769531 "/>
<path style=" stroke:none;fill-rule:nonzero;fill:rgb(68.627453%,80.392158%,31.37255%);fill-opacity:1;" d="M 17.570312 2.484375 L 4.230469 2.484375 C 3.867188 2.492188 3.519531 2.632812 3.257812 2.886719 C 3.003906 3.148438 2.863281 3.496094 2.855469 3.855469 L 2.855469 14.355469 C 2.855469 14.539062 2.890625 14.71875 2.957031 14.886719 C 3.027344 15.046875 3.128906 15.195312 3.257812 15.3125 C 3.386719 15.441406 3.535156 15.542969 3.699219 15.613281 C 3.863281 15.675781 4.039062 15.707031 4.214844 15.714844 L 17.570312 15.714844 C 17.742188 15.710938 17.914062 15.675781 18.070312 15.613281 C 18.40625 15.476562 18.679688 15.214844 18.828125 14.886719 C 18.890625 14.714844 18.921875 14.539062 18.929688 14.355469 L 18.929688 3.855469 C 18.917969 3.5 18.777344 3.15625 18.527344 2.898438 C 18.273438 2.644531 17.929688 2.5 17.570312 2.484375 Z M 16.355469 5.070312 L 16.355469 13.171875 L 5.441406 13.171875 L 5.441406 5.070312 Z M 17.644531 18.199219 L 4.144531 18.199219 C 3.773438 18.214844 3.429688 18.398438 3.214844 18.699219 C 2.738281 19.367188 2.738281 20.261719 3.214844 20.929688 C 3.429688 21.230469 3.773438 21.414062 4.144531 21.429688 L 17.644531 21.429688 C 18.007812 21.417969 18.347656 21.230469 18.558594 20.929688 C 19.050781 20.269531 19.050781 19.359375 18.558594 18.699219 C 18.347656 18.398438 18.007812 18.210938 17.644531 18.199219 Z M 37.070312 18.644531 C 36.796875 18.355469 36.414062 18.195312 36.015625 18.199219 L 21.472656 18.199219 C 21.078125 18.199219 20.699219 18.359375 20.429688 18.644531 C 20.15625 18.929688 20.003906 19.308594 20 19.699219 L 20 31.355469 C 20.003906 31.75 20.15625 32.128906 20.429688 32.414062 C 20.699219 32.699219 21.078125 32.859375 21.472656 32.855469 L 35.972656 32.855469 C 36.371094 32.863281 36.753906 32.703125 37.027344 32.414062 C 37.300781 32.128906 37.453125 31.75 37.457031 31.355469 L 37.457031 19.699219 C 37.464844 19.3125 37.328125 18.933594 37.070312 18.644531 Z M 34.699219 21.027344 L 34.699219 30.058594 L 22.785156 30.058594 L 22.785156 21.027344 Z M 36.113281 33.914062 L 21.386719 33.914062 C 21.003906 33.925781 20.640625 34.101562 20.398438 34.398438 C 20.136719 34.71875 19.996094 35.117188 20 35.527344 C 19.996094 35.941406 20.136719 36.339844 20.398438 36.65625 C 20.640625 36.957031 21 37.132812 21.386719 37.144531 L 36.113281 37.144531 C 36.496094 37.132812 36.859375 36.957031 37.101562 36.65625 C 37.363281 36.339844 37.503906 35.941406 37.5 35.527344 C 37.503906 35.117188 37.363281 34.71875 37.101562 34.398438 C 36.859375 34.101562 36.496094 33.925781 36.113281 33.914062 Z M 36.113281 33.914062 "/>
</g>
</svg>
