<?xml version="1.0" standalone="no"?><!DOCTYPE svg PUBLIC "-//W3C//DTD SVG 1.1//EN" "http://www.w3.org/Graphics/SVG/1.1/DTD/svg11.dtd"><svg t="1752288880747" class="icon" viewBox="0 0 1024 1024" version="1.1" xmlns="http://www.w3.org/2000/svg" p-id="78481" data-spm-anchor-id="a313x.search_index.0.i48.67633a81sAZ9YP" xmlns:xlink="http://www.w3.org/1999/xlink" width="200" height="200"><path d="M160.11698 198.136355a29.245111 29.245111 0 0 0 19.74045-8.042405 28.513983 28.513983 0 0 0 0-39.480899 28.513983 28.513983 0 0 0-40.212027 0 28.513983 28.513983 0 0 0-8.042405 19.740449 27.782855 27.782855 0 0 0 27.782855 27.782855z" fill="#8a8a8a" p-id="78482" data-spm-anchor-id="a313x.search_index.0.i49.67633a81sAZ9YP" class=""></path><path d="M780.844453 76.769146A506.671541 506.671541 0 0 0 511.789435 0.000731a511.789435 511.789435 0 0 0-223.725096 51.178944 29.245111 29.245111 0 0 0-13.1603 38.018643 28.513983 28.513983 0 0 0 38.018644 13.1603A447.450192 447.450192 0 0 1 405.044782 68.726741a389.691099 389.691099 0 0 0-146.225553 201.791263A406.507037 406.507037 0 0 0 73.112776 397.734235a475.233047 475.233047 0 0 1 51.178944-125.753975 27.782855 27.782855 0 1 0-47.523305-29.245111 511.789435 511.789435 0 1 0 704.076038-165.966003zM511.789435 92.853957c73.112776 0 136.720892 61.414732 180.588558 156.461342a813.745202 813.745202 0 0 0-361.177116 0C375.068543 154.268689 438.676659 92.853957 511.789435 92.853957z m114.055931 438.676659a28.513983 28.513983 0 0 1 40.212028 0 27.782855 27.782855 0 0 1 0 39.480899L575.397551 671.907147a32.900749 32.900749 0 0 1-21.202705 8.773533 27.782855 27.782855 0 0 1-27.782856-28.513983V389.69183a28.513983 28.513983 0 1 1 56.296838 0V584.902943z m-292.451105-65.801499l92.853226-95.777737a28.513983 28.513983 0 0 1 48.98556 19.74045v262.474867a29.245111 29.245111 0 0 1-28.513983 28.513983 28.513983 28.513983 0 0 1-27.782855-28.513983V460.611223l-43.867666 46.061049a27.782855 27.782855 0 1 1-40.943155-38.018644zM240.541035 340.706269a810.820691 810.820691 0 0 0 0 360.445988C146.225553 658.015719 83.348565 592.21422 83.348565 520.5637S146.225553 383.842808 240.541035 340.706269zM79.692926 658.015719a414.549443 414.549443 0 0 0 181.319686 116.980443A432.827637 432.827637 0 0 0 365.563882 943.155547 456.954853 456.954853 0 0 1 79.692926 658.015719zM511.789435 950.466825c-73.112776 0-136.720892-61.414732-180.588558-156.461342a813.745202 813.745202 0 0 0 361.177116 0C648.510327 887.589837 584.902212 950.466825 511.789435 950.466825z m146.225553-5.849022a432.827637 432.827637 0 0 0 106.013526-171.815025A414.549443 414.549443 0 0 0 943.885944 658.015719 456.954853 456.954853 0 0 1 658.014988 943.155547z m126.485103-602.449278c95.046609 43.136538 157.192469 108.938037 157.19247 179.85743S877.353317 658.015719 783.037836 701.152257a810.820691 810.820691 0 0 0 0-360.445988z m-20.471577-73.112777A389.691099 389.691099 0 0 0 619.265217 73.113508 454.76147 454.76147 0 0 1 950.466094 398.465363a397.733504 397.733504 0 0 0-187.899836-127.947359z" fill="#afcd50" p-id="78483" data-spm-anchor-id="a313x.search_index.0.i47.67633a81sAZ9YP" class=""></path></svg>