<?xml version="1.0" encoding="UTF-8"?>
<svg xmlns="http://www.w3.org/2000/svg" xmlns:xlink="http://www.w3.org/1999/xlink" width="px" height="40px" viewBox="0 0 40 40" version="1.1">
<g id="surface1">
<path style=" stroke:none;fill-rule:nonzero;fill:rgb(54.11765%,54.11765%,54.11765%);fill-opacity:1;" d="M 6.253906 7.738281 C 6.542969 7.734375 6.816406 7.625 7.027344 7.425781 C 7.4375 6.996094 7.4375 6.3125 7.027344 5.882812 C 6.589844 5.453125 5.890625 5.453125 5.453125 5.882812 C 5.253906 6.089844 5.140625 6.367188 5.140625 6.65625 C 5.140625 7.253906 5.625 7.738281 6.226562 7.738281 Z M 6.253906 7.738281 "/>
<path style=" stroke:none;fill-rule:nonzero;fill:rgb(68.627453%,80.392158%,31.37255%);fill-opacity:1;" d="M 30.5 3 C 27.347656 1.03125 23.707031 -0.0078125 19.992188 0 C 16.964844 -0.00390625 13.976562 0.679688 11.253906 2 C 10.714844 2.277344 10.488281 2.929688 10.738281 3.484375 C 11.007812 4.035156 11.671875 4.265625 12.222656 4 C 13.371094 3.429688 14.578125 2.988281 15.820312 2.683594 C 13.105469 4.617188 11.101562 7.386719 10.109375 10.566406 C 7.273438 11.507812 4.757812 13.230469 2.855469 15.535156 C 3.285156 13.8125 3.957031 12.15625 4.855469 10.625 C 5.171875 10.113281 5.011719 9.441406 4.5 9.125 C 3.984375 8.808594 3.3125 8.96875 3 9.480469 C -2.816406 18.871094 0.0859375 31.195312 9.476562 37.007812 C 18.867188 42.820312 31.191406 39.914062 37 30.519531 C 42.808594 21.125 39.898438 8.804688 30.5 3 Z M 19.992188 3.628906 C 22.847656 3.628906 25.332031 6.027344 27.046875 9.738281 C 22.402344 8.683594 17.582031 8.683594 12.9375 9.738281 C 14.652344 6.027344 17.136719 3.628906 19.992188 3.628906 Z M 24.445312 20.761719 C 24.882812 20.332031 25.582031 20.332031 26.019531 20.761719 C 26.222656 20.964844 26.339844 21.246094 26.339844 21.535156 C 26.339844 21.824219 26.222656 22.101562 26.019531 22.304688 L 22.476562 26.246094 C 22.25 26.457031 21.957031 26.578125 21.648438 26.589844 C 21.355469 26.589844 21.074219 26.472656 20.871094 26.261719 C 20.667969 26.050781 20.554688 25.769531 20.5625 25.476562 L 20.5625 15.222656 C 20.492188 14.789062 20.683594 14.351562 21.054688 14.109375 C 21.425781 13.871094 21.902344 13.871094 22.269531 14.109375 C 22.640625 14.351562 22.832031 14.789062 22.761719 15.222656 L 22.761719 22.847656 Z M 13.023438 18.191406 L 16.648438 14.453125 C 16.964844 14.125 17.445312 14.023438 17.867188 14.195312 C 18.285156 14.363281 18.5625 14.769531 18.5625 15.222656 L 18.5625 25.476562 C 18.546875 26.085938 18.058594 26.574219 17.449219 26.589844 C 16.847656 26.574219 16.363281 26.078125 16.363281 25.476562 L 16.363281 17.992188 L 14.652344 19.792969 C 14.242188 20.234375 13.550781 20.257812 13.109375 19.847656 C 12.667969 19.4375 12.640625 18.75 13.050781 18.308594 Z M 9.394531 13.308594 C 8.339844 17.941406 8.339844 22.753906 9.394531 27.390625 C 5.710938 25.703125 3.253906 23.132812 3.253906 20.335938 C 3.253906 17.535156 5.710938 14.992188 9.394531 13.308594 Z M 3.113281 25.703125 C 5.027344 27.824219 7.472656 29.402344 10.195312 30.273438 C 11.03125 32.75 12.429688 34.996094 14.28125 36.84375 C 9.03125 35.0625 4.902344 30.949219 3.113281 25.703125 Z M 19.992188 37.128906 C 17.136719 37.128906 14.652344 34.730469 12.9375 31.015625 C 17.582031 32.074219 22.402344 32.074219 27.046875 31.015625 C 25.332031 34.671875 22.847656 37.128906 19.992188 37.128906 Z M 25.703125 36.898438 C 27.59375 35.019531 29.011719 32.71875 29.84375 30.1875 C 32.539062 29.332031 34.960938 27.785156 36.871094 25.703125 C 35.078125 30.949219 30.953125 35.0625 25.703125 36.84375 Z M 30.644531 13.367188 C 34.355469 15.050781 36.785156 17.621094 36.785156 20.390625 C 36.785156 23.160156 34.273438 25.703125 30.585938 27.390625 C 31.644531 22.753906 31.644531 17.941406 30.585938 13.308594 Z M 29.84375 10.511719 C 28.828125 7.417969 26.84375 4.738281 24.191406 2.855469 C 30.503906 4.40625 35.464844 9.28125 37.128906 15.566406 C 35.21875 13.21875 32.667969 11.484375 29.789062 10.566406 Z M 29.84375 10.511719 "/>
</g>
</svg>
