<?xml version="1.0" encoding="UTF-8"?>
<svg xmlns="http://www.w3.org/2000/svg" xmlns:xlink="http://www.w3.org/1999/xlink" width="px" height="40px" viewBox="0 0 40 40" version="1.1">
<g id="surface1">
<path style=" stroke:none;fill-rule:nonzero;fill:rgb(90.588236%,90.588236%,92.54902%);fill-opacity:1;" d="M 20 0 C 33.332031 0 40 6.667969 40 20 C 40 33.332031 33.332031 40 20 40 C 6.667969 40 0 33.332031 0 20 C 0 6.667969 6.667969 0 20 0 Z M 20 0 "/>
<path style=" stroke:none;fill-rule:nonzero;fill:rgb(96.078432%,42.352942%,42.352942%);fill-opacity:1;" d="M 18.582031 29.328125 C 18.582031 28.53125 19.226562 27.882812 20.027344 27.882812 C 20.824219 27.882812 21.46875 28.53125 21.46875 29.328125 C 21.46875 30.125 20.824219 30.769531 20.027344 30.769531 C 19.230469 30.769531 18.582031 30.125 18.582031 29.328125 Z M 32.34375 15.113281 C 32.855469 15.625 32.855469 16.449219 32.347656 16.960938 C 31.835938 17.472656 31.011719 17.472656 30.496094 16.960938 C 24.699219 11.164062 15.300781 11.164062 9.503906 16.960938 C 8.996094 17.472656 8.167969 17.472656 7.65625 16.960938 C 7.410156 16.71875 7.273438 16.382812 7.273438 16.039062 C 7.273438 15.691406 7.410156 15.359375 7.65625 15.113281 C 14.472656 8.296875 25.527344 8.296875 32.34375 15.113281 Z M 11.285156 19.25 C 16.097656 14.441406 23.898438 14.441406 28.710938 19.25 C 29.222656 19.761719 29.222656 20.589844 28.710938 21.097656 C 28.46875 21.34375 28.136719 21.484375 27.789062 21.484375 C 27.441406 21.484375 27.109375 21.34375 26.863281 21.097656 C 23.074219 17.308594 16.921875 17.308594 13.132812 21.097656 C 12.625 21.613281 11.796875 21.613281 11.285156 21.101562 C 11.039062 20.855469 10.902344 20.523438 10.902344 20.175781 C 10.902344 19.828125 11.039062 19.496094 11.285156 19.25 Z M 25.183594 25.558594 C 24.738281 26.007812 24.035156 26.070312 23.515625 25.710938 L 23.5 25.730469 L 23.257812 25.484375 C 21.46875 23.699219 18.574219 23.695312 16.785156 25.484375 C 16.277344 25.996094 15.449219 25.996094 14.9375 25.488281 C 14.691406 25.242188 14.554688 24.910156 14.554688 24.5625 C 14.554688 24.214844 14.691406 23.882812 14.9375 23.636719 C 17.746094 20.828125 22.296875 20.828125 25.105469 23.636719 L 25.160156 23.695312 L 25.179688 23.710938 L 25.234375 23.765625 L 25.347656 23.882812 L 25.335938 23.894531 C 25.6875 24.402344 25.636719 25.105469 25.183594 25.558594 Z M 25.183594 25.558594 "/>
</g>
</svg>
