<?xml version="1.0" standalone="no"?><!DOCTYPE svg PUBLIC "-//W3C//DTD SVG 1.1//EN" "http://www.w3.org/Graphics/SVG/1.1/DTD/svg11.dtd"><svg t="1752286972839" class="icon" viewBox="0 0 1024 1024" version="1.1" xmlns="http://www.w3.org/2000/svg" p-id="29815" xmlns:xlink="http://www.w3.org/1999/xlink" width="200" height="200"><path d="M0 0m512 0l0 0q512 0 512 512l0 0q0 512-512 512l0 0q-512 0-512-512l0 0q0-512 512-512Z" fill="#E7E7EC" p-id="29816" data-spm-anchor-id="a313x.search_index.0.i4.67633a81sAZ9YP" class=""></path><path d="M475.694545 750.778182a36.957091 36.957091 0 1 1 73.937455 0 36.957091 36.957091 0 0 1-73.914182 0z m352.349091-363.892364a33.512727 33.512727 0 0 1 0.023273 47.290182c-13.032727 13.102545-34.210909 13.102545-47.336727 0-148.386909-148.363636-389.026909-148.363636-537.390546 0-13.032727 13.102545-34.234182 13.102545-47.313454 0.046545a33.396364 33.396364 0 0 1-0.023273-47.336727c174.498909-174.522182 457.541818-174.522182 632.040727 0z m-539.159272 105.960727c123.252364-123.159273 322.955636-123.159273 446.114909 0 13.125818 13.009455 13.125818 34.210909 0.046545 47.290182a33.396364 33.396364 0 0 1-47.336727 0c-97.047273-97.047273-254.464-97.047273-351.488 0-13.032727 13.125818-34.210909 13.125818-47.313455 0.046546a33.396364 33.396364 0 0 1 0-47.336728z m355.793454 161.466182a33.396364 33.396364 0 0 1-42.658909 3.933091l-0.418909 0.418909-6.237091-6.237091a117.061818 117.061818 0 0 0-165.632-0.023272c-13.032727 13.125818-34.210909 13.125818-47.313454 0.046545a33.396364 33.396364 0 0 1 0-47.336727 183.994182 183.994182 0 0 1 260.258909 0l1.466181 1.466182 0.488728 0.418909 1.349818 1.396363 2.932364 2.955637-0.349091 0.349091c9.029818 13.009455 7.726545 31.022545-3.886546 42.612363z" fill="#f56c6c" p-id="29817" data-spm-anchor-id="a313x.search_index.0.i3.67633a81sAZ9YP" class=""></path></svg>