<?xml version="1.0" standalone="no"?><!DOCTYPE svg PUBLIC "-//W3C//DTD SVG 1.1//EN" "http://www.w3.org/Graphics/SVG/1.1/DTD/svg11.dtd"><svg t="1752287572385" class="icon" viewBox="0 0 1260 1024" version="1.1" xmlns="http://www.w3.org/2000/svg" p-id="38091" xmlns:xlink="http://www.w3.org/1999/xlink" width="246.09375" height="200"><path d="M525.115077 887.453538l-10.948923-0.118153c-207.596308-5.671385-374.153846-171.559385-374.153846-375.335385 0-207.36 172.425846-375.453538 385.102769-375.453538h210.077538c212.676923 0 385.063385 168.093538 385.063385 375.453538s-172.386462 375.453538-385.063385 375.453538h-210.077538z" fill="#afcd50" p-id="38092" data-spm-anchor-id="a313x.search_index.0.i19.67633a81sAZ9YP" class=""></path><path d="M654.769231 760.438154a24.024615 24.024615 0 0 1-7.168 17.132308 24.969846 24.969846 0 0 1-35.012923 0 23.748923 23.748923 0 0 1-7.168-17.132308v-234.535385a63.015385 63.015385 0 0 1-39.384616-58.131692c0-34.737231 28.750769-63.015385 64.118154-63.015385 35.367385 0 64.118154 28.278154 64.118154 63.015385 0 25.718154-15.832615 48.443077-39.384615 58.131692v234.535385h-0.118154z m153.127384-292.706462a152.812308 152.812308 0 0 1-74.830769 131.426462 24.812308 24.812308 0 0 1-33.949538-7.995077 24.024615 24.024615 0 0 1 8.073846-33.319385 104.644923 104.644923 0 0 0 51.278769-90.112 104.644923 104.644923 0 0 0-51.278769-90.112 23.945846 23.945846 0 0 1-8.073846-33.319384 25.009231 25.009231 0 0 1 33.988923-7.995077 152.812308 152.812308 0 0 1 74.830769 131.426461z m7.955693 190.148923a24.930462 24.930462 0 0 1-34.619077-4.883692 24.024615 24.024615 0 0 1 4.962461-33.910154 186.486154 186.486154 0 0 0 76.957539-151.355077 186.486154 186.486154 0 0 0-76.957539-151.355077 24.024615 24.024615 0 0 1-4.962461-33.949538 25.206154 25.206154 0 0 1 34.619077-4.883692c61.243077 45.095385 97.122462 115.554462 96.728615 190.227692a234.220308 234.220308 0 0 1-96.728615 190.109538z m-314.171077-190.148923c0 37.021538 19.180308 70.734769 51.278769 90.112a24.024615 24.024615 0 0 1 8.152615 33.319385 25.127385 25.127385 0 0 1-34.028307 7.995077 152.694154 152.694154 0 0 1-74.83077-131.426462 152.615385 152.615385 0 0 1 74.83077-131.426461 25.127385 25.127385 0 0 1 34.028307 7.995077 24.024615 24.024615 0 0 1-8.152615 33.319384 104.644923 104.644923 0 0 0-51.278769 90.112z m-27.963077 151.473231a24.024615 24.024615 0 0 1 4.923077 33.949539 24.930462 24.930462 0 0 1-34.619077 4.804923 234.220308 234.220308 0 0 1-96.728616-190.109539 234.338462 234.338462 0 0 1 96.728616-190.109538 25.206154 25.206154 0 0 1 18.353231-4.608 24.812308 24.812308 0 0 1 16.265846 9.491692 24.024615 24.024615 0 0 1-4.923077 33.949538 186.446769 186.446769 0 0 0-77.036308 151.276308 186.525538 186.525538 0 0 0 77.036308 151.355077z" fill="#FFFFFF" p-id="38093"></path></svg>