<?xml version="1.0" encoding="UTF-8"?>
<svg xmlns="http://www.w3.org/2000/svg" xmlns:xlink="http://www.w3.org/1999/xlink" width="px" height="40px" viewBox="0 0 49 40" version="1.1">
<g id="surface1">
<path style=" stroke:none;fill-rule:nonzero;fill:rgb(96.078432%,42.352942%,42.352942%);fill-opacity:1;" d="M 20.429688 34.667969 L 20.003906 34.660156 C 11.925781 34.441406 5.445312 27.960938 5.445312 20 C 5.445312 11.898438 12.15625 5.332031 20.429688 5.332031 L 28.601562 5.332031 C 36.875 5.332031 43.582031 11.898438 43.582031 20 C 43.582031 28.101562 36.875 34.667969 28.601562 34.667969 Z M 20.429688 34.667969 "/>
<path style=" stroke:none;fill-rule:nonzero;fill:rgb(100%,100%,100%);fill-opacity:1;" d="M 25.472656 29.703125 C 25.472656 29.957031 25.371094 30.199219 25.195312 30.375 C 24.816406 30.746094 24.210938 30.746094 23.832031 30.375 C 23.652344 30.199219 23.550781 29.957031 23.554688 29.703125 L 23.554688 20.542969 C 22.628906 20.167969 22.027344 19.269531 22.019531 18.273438 C 22.019531 16.914062 23.140625 15.8125 24.515625 15.8125 C 25.890625 15.8125 27.007812 16.914062 27.007812 18.273438 C 27.007812 19.277344 26.394531 20.164062 25.476562 20.542969 L 25.476562 29.703125 Z M 31.429688 18.269531 C 31.429688 20.378906 30.324219 22.328125 28.519531 23.40625 C 28.066406 23.679688 27.480469 23.542969 27.199219 23.09375 C 27.066406 22.878906 27.023438 22.621094 27.082031 22.375 C 27.140625 22.128906 27.296875 21.921875 27.511719 21.789062 C 28.75 21.054688 29.507812 19.714844 29.507812 18.269531 C 29.507812 16.824219 28.75 15.488281 27.511719 14.75 C 27.296875 14.621094 27.140625 14.410156 27.082031 14.167969 C 27.023438 13.921875 27.066406 13.664062 27.199219 13.449219 C 27.480469 13.003906 28.066406 12.863281 28.519531 13.136719 C 30.324219 14.210938 31.433594 16.164062 31.433594 18.269531 Z M 31.738281 25.699219 C 31.3125 26.015625 30.714844 25.929688 30.394531 25.507812 C 30.242188 25.308594 30.175781 25.054688 30.210938 24.804688 C 30.25 24.554688 30.382812 24.332031 30.585938 24.183594 C 32.472656 22.808594 33.585938 20.609375 33.578125 18.269531 C 33.585938 15.933594 32.472656 13.730469 30.585938 12.359375 C 30.382812 12.210938 30.25 11.984375 30.210938 11.734375 C 30.175781 11.488281 30.242188 11.234375 30.394531 11.03125 C 30.71875 10.617188 31.3125 10.53125 31.738281 10.839844 C 34.121094 12.601562 35.519531 15.355469 35.503906 18.273438 C 35.507812 21.210938 34.109375 23.972656 31.738281 25.699219 Z M 19.515625 18.269531 C 19.515625 19.71875 20.261719 21.035156 21.511719 21.789062 C 21.726562 21.917969 21.882812 22.128906 21.941406 22.375 C 22.003906 22.621094 21.960938 22.878906 21.828125 23.09375 C 21.542969 23.539062 20.957031 23.675781 20.503906 23.40625 C 18.699219 22.328125 17.59375 20.378906 17.59375 18.269531 C 17.59375 16.164062 18.699219 14.210938 20.503906 13.136719 C 20.957031 12.867188 21.542969 13.003906 21.828125 13.449219 C 21.960938 13.664062 22.003906 13.921875 21.941406 14.167969 C 21.882812 14.410156 21.726562 14.621094 21.511719 14.75 C 20.273438 15.488281 19.515625 16.824219 19.515625 18.269531 Z M 18.429688 24.1875 C 18.632812 24.335938 18.765625 24.5625 18.800781 24.808594 C 18.839844 25.058594 18.773438 25.3125 18.621094 25.515625 C 18.296875 25.933594 17.699219 26.019531 17.273438 25.703125 C 14.90625 23.976562 13.503906 21.214844 13.511719 18.273438 C 13.503906 15.335938 14.90625 12.574219 17.273438 10.847656 C 17.480469 10.699219 17.734375 10.632812 17.988281 10.667969 C 18.238281 10.703125 18.464844 10.835938 18.621094 11.039062 C 18.773438 11.242188 18.839844 11.492188 18.800781 11.742188 C 18.765625 11.992188 18.632812 12.21875 18.429688 12.367188 C 16.542969 13.738281 15.429688 15.9375 15.433594 18.273438 C 15.429688 20.613281 16.542969 22.8125 18.429688 24.1875 Z M 18.429688 24.1875 "/>
</g>
</svg>
