<?xml version="1.0" standalone="no"?><!DOCTYPE svg PUBLIC "-//W3C//DTD SVG 1.1//EN" "http://www.w3.org/Graphics/SVG/1.1/DTD/svg11.dtd"><svg t="1752288666188" class="icon" viewBox="0 0 1024 1024" version="1.1" xmlns="http://www.w3.org/2000/svg" p-id="67842" xmlns:xlink="http://www.w3.org/1999/xlink" width="200" height="200"><path d="M1023.146667 496.853333S1046.741333 0 500.693333 0C17.834667 0 2.730667 476.586667 2.730667 476.586667S-68.266667 1024 511.872 1024C1068.373333 1024 1023.146667 496.853333 1023.146667 496.853333zM347.946667 323.242667c102.4-62.72 233.344-24.362667 282.368 69.888 9.301333 17.877333 10.496 45.354667 4.608 64.128-20.352 64.682667-68.309333 100.949333-134.186667 116.394666 19.413333-16.64 34.858667-35.498667 39.808-61.525333a90.112 90.112 0 0 0-15.530667-71.552 91.306667 91.306667 0 0 0-105.173333-32c-40.533333 15.36-62.72 52.394667-58.752 97.877333 3.712 42.24 35.797333 69.632 95.786667 80.042667-8.96 4.736-15.872 8.234667-22.613334 11.989333a218.154667 218.154667 0 0 0-70.144 61.013334c-6.101333 8.192-10.24 8.874667-19.541333 3.2-120.618667-73.770667-128.384-258.858667 3.328-339.456zM257.706667 779.008c-19.413333 4.949333-38.186667 12.202667-57.984 18.688 9.685333-65.365333 86.229333-125.568 150.997333-118.698667a166.826667 166.826667 0 0 0-31.573333 88.405334c-21.504 3.968-41.813333 6.613333-61.44 11.605333zM669.994667 140.8c19.114667 0.725333 38.314667 0.426667 57.472 0.853333a99.157333 99.157333 0 0 1 14.250666 2.005334 138.624 138.624 0 0 1-14.506666 18.517333c-6.826667 6.4-14.549333 12.629333-24.448 2.944-2.346667-2.346667-7.978667-1.792-12.074667-1.877333-19.072-0.213333-38.144-0.853333-57.173333-0.128a355.114667 355.114667 0 0 0-49.237334 5.034666c-3.072 0.554667-7.594667 10.666667-6.229333 14.421334 3.328 8.832 8.149333 18.56 15.317333 24.192 26.410667 20.906667 54.485333 39.594667 81.066667 60.288 25.770667 20.138667 49.792 42.24 64.426667 72.533333 19.029333 39.594667 19.626667 81.066667 11.392 122.752-13.738667 69.546667-48.938667 127.146667-105.941334 169.045333-22.954667 16.853333-51.413333 26.453333-77.696 38.528-23.168 10.666667-46.933333 19.84-70.144 30.378667-41.813333 19.029333-65.28 64.426667-58.410666 111.573333 6.357333 43.306667 44.373333 79.445333 87.850666 86.912 52.181333 8.96 106.069333-25.002667 118.826667-78.08 14.336-59.605333-18.048-112.896-78.72-129.024l-10.922667-2.816c16.213333-7.253333 30.208-12.416 43.178667-19.541333q33.834667-18.645333 66.474667-39.466667c6.4-4.096 9.856-4.096 15.36 0.597334 41.685333 36.096 66.56 80.981333 73.557333 135.978666 11.52 91.093333-31.573333 174.762667-112.896 217.642667-125.781333 66.346667-279.765333-9.173333-307.541333-148.650667-23.808-119.466667 60.501333-227.84 162.005333-248.746666 43.648-9.002667 83.541333-27.178667 114.56-60.8 20.053333-21.674667 29.738667-40.277333 33.066667-48.682667a135.04 135.04 0 0 0 9.258666-49.408 115.626667 115.626667 0 0 0-10.112-42.325333c-10.581333-24.149333-51.2-62.549333-61.226666-70.656l-95.573334-74.837334c-3.370667-2.773333-7.168-2.56-15.36-2.005333-9.813333 0.682667-34.773333 2.048-45.525333-0.768 8.704-6.613333 32.426667-16.213333 42.666667-23.893333-30.976-20.906667-66.304-13.397333-98.773334-19.626667 7.509333-13.994667 44.629333-35.456 65.749334-37.888a312.448 312.448 0 0 0-5.76-35.072c-1.28-4.736-6.570667-9.386667-11.221334-12.074667-11.178667-6.570667-23.082667-11.989333-35.968-18.517333a74.88 74.88 0 0 1 38.656-11.946667 144.426667 144.426667 0 0 1 38.741334 3.754667c23.04 5.248 41.386667 1.792 59.690666-13.824-14.421333-5.802667-28.842667-11.093333-42.794666-17.365333a419.968 419.968 0 0 1-40.192-21.034667c36.266667 5.034667 71.296 18.645333 108.373333 13.653333l0.938667-5.034666-86.101334-20.053334c51.328-4.693333 99.114667-5.461333 144.384 16.554667 12.757333 6.229333 26.026667 11.349333 38.272 18.432 5.973333 3.413333 9.941333 10.24 14.848 15.573333 3.84 4.181333 6.997333 9.813333 11.776 12.373334 18.090667 9.6 37.973333 9.984 58.282667 9.514666l0.426667-6.826666c20.437333 6.4 43.392 29.952 43.392 47.146666-33.109333 0-66.133333-0.128-99.2 0.170667-3.541333 0-7.04 2.602667-10.538667 4.010667 3.328 1.962667 6.613333 5.461333 10.026667 5.589333z m-42.666667-48.938667a5.034667 5.034667 0 0 0-0.682667 8.106667 7.637333 7.637333 0 0 0 10.496 2.773333c3.2-1.621333 6.314667-3.328 10.154667-5.333333-3.072-2.645333-5.546667-4.864-8.106667-6.954667-4.522667-3.712-8.234667-1.365333-11.861333 1.408z" p-id="67843" data-spm-anchor-id="a313x.search_index.0.i45.67633a81sAZ9YP" class="" fill="#8a8a8a"></path></svg>