<?xml version="1.0" standalone="no"?><!DOCTYPE svg PUBLIC "-//W3C//DTD SVG 1.1//EN" "http://www.w3.org/Graphics/SVG/1.1/DTD/svg11.dtd"><svg t="1752288660912" class="icon" viewBox="0 0 1024 1024" version="1.1" xmlns="http://www.w3.org/2000/svg" p-id="67678" xmlns:xlink="http://www.w3.org/1999/xlink" width="200" height="200"><path d="M1023.136 496.864S1046.72 0 500.672 0C17.824 0 2.72 476.576 2.72 476.576S-68.288 1024 511.872 1024c556.512 0 511.264-527.136 511.264-527.136z m-675.2-173.632c102.4-62.72 233.344-24.352 282.368 69.888 9.312 17.888 10.496 45.344 4.608 64.128-20.352 64.672-68.32 100.96-134.176 116.384 19.424-16.64 34.848-35.488 39.808-61.536a89.664 89.664 0 0 0-15.68-71.776l0.16 0.256a91.296 91.296 0 0 0-105.824-31.808l0.64-0.192c-40.544 15.36-62.72 52.384-58.752 97.888 3.712 42.24 35.808 69.632 95.776 80.032-8.96 4.736-15.872 8.224-22.624 12a219.84 219.84 0 0 0-69.728 60.448l-0.416 0.576c-6.112 8.192-10.24 8.864-19.552 3.2-120.608-73.76-128.384-258.848 3.36-339.456z m-90.24 455.776c-19.424 4.96-38.176 12.192-57.984 18.688 9.696-65.376 86.24-125.568 151.008-118.688a165.472 165.472 0 0 0-31.552 87.936l-0.032 0.448c-21.504 3.968-41.824 6.624-61.44 11.616zM669.984 140.8c19.104 0.736 38.304 0.416 57.472 0.864 5.28 0.352 10.176 1.088 14.912 2.112l-0.672-0.128a137.28 137.28 0 0 1-14.592 18.592l0.064-0.096c-6.816 6.4-14.56 12.64-24.448 2.944-2.336-2.336-7.968-1.792-12.064-1.888-19.072-0.224-38.144-0.864-57.184-0.128a358.08 358.08 0 0 0-51.392 5.344l2.144-0.32c-3.072 0.544-7.584 10.656-6.24 14.432 3.328 8.832 8.16 18.56 15.328 24.192 26.4 20.896 54.496 39.584 81.056 60.288 25.76 20.128 49.792 42.24 64.416 72.544 19.04 39.584 19.616 81.056 11.392 122.752-13.728 69.536-48.928 127.136-105.952 169.056-22.944 16.864-51.424 26.464-77.696 38.528-23.168 10.656-46.944 19.84-70.144 30.368-41.824 19.04-65.28 64.416-58.4 111.584 6.368 43.296 44.384 79.456 87.84 86.912 52.192 8.96 106.08-24.992 118.816-78.08 14.336-59.616-18.048-112.896-78.72-129.024l-10.912-2.816c16.224-7.264 30.208-12.416 43.168-19.552q33.824-18.656 66.464-39.456c6.4-4.096 9.856-4.096 15.36 0.608 41.696 36.096 66.56 80.992 73.568 135.968 11.52 91.104-31.584 174.752-112.896 217.632-125.792 66.336-279.776-9.184-307.552-148.64-23.808-119.456 60.512-227.84 162.016-248.736 43.648-8.992 83.552-27.168 114.56-60.8 20.064-21.664 29.728-40.288 33.056-48.672 5.856-14.56 9.248-31.456 9.248-49.152v-0.288a115.904 115.904 0 0 0-10.4-43.04l0.288 0.704c-10.592-24.16-51.2-62.56-61.216-70.656l-95.584-74.848c-3.36-2.784-7.168-2.56-15.36-2.016-9.824 0.672-34.784 2.048-45.536-0.768 8.704-6.624 32.416-16.224 42.656-23.904-30.976-20.896-66.304-13.408-98.784-19.616 7.52-13.984 44.64-35.456 65.76-37.888a309.504 309.504 0 0 0-6.176-37.184l0.416 2.112c-1.28-4.736-6.56-9.376-11.232-12.064-11.168-6.56-23.072-12-35.968-18.528a74.016 74.016 0 0 1 38.56-11.936h0.096a149.696 149.696 0 0 1 39.744 3.968l-0.992-0.192c23.04 5.248 41.376 1.792 59.68-13.824-14.432-5.792-28.832-11.104-42.784-17.376-16.16-7.392-29.344-14.4-42.08-22.08l1.888 1.056c36.256 5.024 71.296 18.656 108.384 13.664l0.928-5.024L458.176 18.24c51.328-4.704 99.104-5.472 144.384 16.544 12.768 6.24 26.016 11.36 38.272 18.432 5.984 3.424 9.952 10.24 14.848 15.584 3.84 4.192 7.008 9.824 11.776 12.384 18.08 9.6 37.984 9.984 58.272 9.504l0.416-6.816c20.448 6.4 43.392 29.952 43.392 47.136-33.12 0-66.144-0.128-99.2 0.16-3.552 0-7.04 2.592-10.528 4 3.328 1.952 6.624 5.472 10.016 5.6z m-42.656-48.928a5.024 5.024 0 0 0-0.704 8.096 7.68 7.68 0 0 0 10.528 2.752l-0.032 0.032c3.2-1.632 6.304-3.328 10.144-5.344-3.072-2.656-5.536-4.864-8.096-6.944-4.512-3.712-8.224-1.376-11.872 1.408z" fill="#88171A" p-id="67679"></path></svg>