<?xml version="1.0" encoding="UTF-8"?>
<svg xmlns="http://www.w3.org/2000/svg" xmlns:xlink="http://www.w3.org/1999/xlink" width="px" height="40px" viewBox="0 0 40 40" version="1.1">
<g id="surface1">
<path style=" stroke:none;fill-rule:nonzero;fill:rgb(54.11765%,54.11765%,54.11765%);fill-opacity:1;" d="M 39.964844 19.410156 C 39.964844 19.410156 40.886719 0 19.558594 0 C 0.695312 0 0.105469 18.617188 0.105469 18.617188 C 0.105469 18.617188 -2.667969 40 19.996094 40 C 41.734375 40 39.964844 19.410156 39.964844 19.410156 Z M 13.589844 12.625 C 17.589844 10.175781 22.707031 11.675781 24.621094 15.355469 C 24.984375 16.054688 25.03125 17.128906 24.800781 17.863281 C 24.007812 20.386719 22.132812 21.804688 19.558594 22.410156 C 20.316406 21.757812 20.921875 21.023438 21.113281 20.003906 C 21.316406 19.03125 21.097656 18.015625 20.507812 17.210938 C 19.570312 15.921875 17.894531 15.414062 16.398438 15.960938 C 14.816406 16.558594 13.949219 18.007812 14.105469 19.785156 C 14.25 21.433594 15.503906 22.503906 17.847656 22.910156 C 17.496094 23.09375 17.226562 23.230469 16.964844 23.378906 C 15.890625 23.964844 14.953125 24.78125 14.222656 25.761719 C 13.984375 26.082031 13.824219 26.109375 13.460938 25.886719 C 8.75 23.003906 8.445312 15.773438 13.589844 12.625 Z M 10.066406 30.429688 C 9.308594 30.625 8.574219 30.90625 7.800781 31.160156 C 8.179688 28.605469 11.171875 26.253906 13.699219 26.523438 C 12.96875 27.53125 12.539062 28.730469 12.464844 29.976562 C 11.625 30.132812 10.832031 30.234375 10.066406 30.429688 Z M 26.171875 5.5 C 26.917969 5.527344 27.667969 5.515625 28.417969 5.535156 C 28.605469 5.546875 28.789062 5.570312 28.972656 5.613281 C 28.804688 5.867188 28.617188 6.109375 28.40625 6.335938 C 28.140625 6.585938 27.839844 6.828125 27.453125 6.449219 C 27.359375 6.359375 27.140625 6.378906 26.980469 6.375 C 26.234375 6.367188 25.488281 6.34375 24.746094 6.371094 C 24.101562 6.390625 23.460938 6.457031 22.824219 6.566406 C 22.703125 6.589844 22.527344 6.984375 22.578125 7.132812 C 22.710938 7.476562 22.898438 7.855469 23.179688 8.078125 C 24.210938 8.894531 25.308594 9.625 26.34375 10.433594 C 27.351562 11.21875 28.289062 12.082031 28.863281 13.265625 C 29.605469 14.8125 29.628906 16.433594 29.308594 18.058594 C 28.769531 20.777344 27.394531 23.027344 25.167969 24.664062 C 24.273438 25.320312 23.160156 25.695312 22.132812 26.167969 C 21.226562 26.585938 20.300781 26.941406 19.394531 27.355469 C 17.761719 28.097656 16.84375 29.871094 17.113281 31.714844 C 17.359375 33.40625 18.84375 34.816406 20.542969 35.109375 C 22.582031 35.457031 24.6875 34.132812 25.183594 32.058594 C 25.746094 29.730469 24.480469 27.648438 22.109375 27.019531 L 21.683594 26.910156 C 22.316406 26.625 22.863281 26.421875 23.371094 26.144531 C 24.25 25.660156 25.117188 25.144531 25.964844 24.601562 C 26.214844 24.441406 26.351562 24.441406 26.566406 24.625 C 28.195312 26.035156 29.167969 27.789062 29.441406 29.9375 C 29.890625 33.496094 28.207031 36.765625 25.03125 38.441406 C 20.117188 41.03125 14.101562 38.082031 13.015625 32.632812 C 12.085938 27.964844 15.378906 23.734375 19.34375 22.917969 C 21.050781 22.566406 22.609375 21.855469 23.820312 20.542969 C 24.601562 19.695312 24.980469 18.96875 25.113281 18.640625 C 25.351562 18.023438 25.476562 17.371094 25.472656 16.710938 C 25.449219 16.140625 25.3125 15.578125 25.078125 15.058594 C 24.664062 14.113281 23.078125 12.613281 22.6875 12.296875 L 18.953125 9.375 C 18.820312 9.265625 18.671875 9.273438 18.351562 9.296875 C 17.96875 9.320312 16.996094 9.375 16.574219 9.265625 C 16.914062 9.007812 17.839844 8.632812 18.242188 8.332031 C 17.03125 7.515625 15.652344 7.808594 14.382812 7.566406 C 14.675781 7.019531 16.125 6.179688 16.953125 6.085938 C 16.902344 5.625 16.828125 5.167969 16.726562 4.714844 C 16.675781 4.53125 16.46875 4.347656 16.289062 4.242188 C 15.851562 3.988281 15.386719 3.773438 14.882812 3.519531 C 15.335938 3.230469 15.855469 3.066406 16.394531 3.054688 C 16.902344 3.035156 17.410156 3.082031 17.90625 3.199219 C 18.808594 3.40625 19.523438 3.269531 20.238281 2.660156 C 19.675781 2.433594 19.113281 2.226562 18.566406 1.980469 C 18.027344 1.734375 17.503906 1.460938 16.996094 1.160156 C 18.414062 1.355469 19.78125 1.886719 21.230469 1.691406 L 21.265625 1.496094 L 17.902344 0.714844 C 19.910156 0.53125 21.773438 0.5 23.542969 1.359375 C 24.042969 1.601562 24.558594 1.804688 25.039062 2.078125 C 25.273438 2.214844 25.425781 2.480469 25.617188 2.6875 C 25.769531 2.851562 25.890625 3.070312 26.078125 3.171875 C 26.785156 3.546875 27.5625 3.5625 28.355469 3.542969 L 28.371094 3.277344 C 29.171875 3.527344 30.066406 4.445312 30.066406 5.117188 C 28.773438 5.117188 27.484375 5.113281 26.191406 5.125 C 26.054688 5.125 25.917969 5.226562 25.78125 5.28125 C 25.910156 5.359375 26.039062 5.496094 26.171875 5.5 Z M 24.503906 3.589844 C 24.453125 3.621094 24.417969 3.675781 24.410156 3.738281 C 24.40625 3.800781 24.429688 3.863281 24.476562 3.90625 C 24.519531 3.972656 24.582031 4.023438 24.660156 4.042969 C 24.738281 4.066406 24.820312 4.054688 24.886719 4.011719 C 25.011719 3.949219 25.136719 3.882812 25.285156 3.804688 C 25.164062 3.703125 25.066406 3.613281 24.96875 3.535156 C 24.792969 3.386719 24.648438 3.480469 24.503906 3.589844 Z M 24.503906 3.589844 "/>
</g>
</svg>
