<?xml version="1.0" encoding="UTF-8"?>
<svg xmlns="http://www.w3.org/2000/svg" xmlns:xlink="http://www.w3.org/1999/xlink" width="px" height="40px" viewBox="0 0 40 40" version="1.1">
<g id="surface1">
<path style=" stroke:none;fill-rule:nonzero;fill:rgb(53.333336%,9.019608%,10.196079%);fill-opacity:1;" d="M 39.964844 19.410156 C 39.964844 19.410156 40.886719 0 19.558594 0 C 0.695312 0 0.105469 18.617188 0.105469 18.617188 C 0.105469 18.617188 -2.667969 40 19.996094 40 C 41.734375 40 39.964844 19.410156 39.964844 19.410156 Z M 13.589844 12.625 C 17.589844 10.175781 22.707031 11.675781 24.621094 15.355469 C 24.984375 16.054688 25.03125 17.128906 24.800781 17.859375 C 24.007812 20.386719 22.132812 21.804688 19.558594 22.40625 C 20.320312 21.757812 20.921875 21.019531 21.113281 20.003906 C 21.320312 19.023438 21.097656 18.003906 20.503906 17.199219 L 20.507812 17.210938 C 19.566406 15.914062 17.875 15.40625 16.375 15.96875 L 16.398438 15.960938 C 14.816406 16.558594 13.949219 18.007812 14.105469 19.785156 C 14.25 21.433594 15.503906 22.503906 17.847656 22.910156 C 17.496094 23.09375 17.226562 23.230469 16.960938 23.378906 C 15.898438 23.964844 14.96875 24.769531 14.238281 25.738281 L 14.222656 25.761719 C 13.984375 26.082031 13.824219 26.109375 13.457031 25.886719 C 8.746094 23.007812 8.445312 15.777344 13.589844 12.628906 Z M 10.066406 30.429688 C 9.308594 30.625 8.574219 30.90625 7.800781 31.160156 C 8.179688 28.605469 11.171875 26.253906 13.699219 26.523438 C 12.96875 27.527344 12.539062 28.71875 12.46875 29.957031 L 12.464844 29.976562 C 11.625 30.132812 10.832031 30.234375 10.066406 30.429688 Z M 26.171875 5.5 C 26.917969 5.527344 27.667969 5.515625 28.417969 5.535156 C 28.621094 5.546875 28.8125 5.578125 29 5.617188 L 28.972656 5.609375 C 28.804688 5.871094 28.613281 6.113281 28.402344 6.335938 L 28.40625 6.332031 C 28.140625 6.582031 27.835938 6.828125 27.449219 6.449219 C 27.359375 6.359375 27.140625 6.378906 26.980469 6.375 C 26.234375 6.367188 25.488281 6.339844 24.746094 6.371094 C 24.070312 6.390625 23.402344 6.460938 22.738281 6.578125 L 22.820312 6.566406 C 22.703125 6.585938 22.523438 6.984375 22.578125 7.128906 C 22.707031 7.476562 22.894531 7.855469 23.175781 8.074219 C 24.207031 8.890625 25.304688 9.621094 26.34375 10.429688 C 27.347656 11.214844 28.289062 12.078125 28.859375 13.265625 C 29.601562 14.808594 29.625 16.429688 29.304688 18.058594 C 28.765625 20.773438 27.390625 23.023438 25.164062 24.664062 C 24.269531 25.320312 23.15625 25.695312 22.128906 26.167969 C 21.226562 26.582031 20.296875 26.941406 19.390625 27.355469 C 17.757812 28.097656 16.839844 29.871094 17.109375 31.710938 C 17.359375 33.402344 18.84375 34.816406 20.539062 35.109375 C 22.578125 35.457031 24.683594 34.132812 25.179688 32.058594 C 25.742188 29.730469 24.476562 27.648438 22.105469 27.015625 L 21.679688 26.90625 C 22.3125 26.625 22.859375 26.421875 23.367188 26.144531 C 24.246094 25.65625 25.113281 25.144531 25.960938 24.601562 C 26.210938 24.441406 26.347656 24.441406 26.5625 24.625 C 28.191406 26.035156 29.164062 27.789062 29.4375 29.9375 C 29.886719 33.496094 28.203125 36.765625 25.027344 38.4375 C 20.113281 41.03125 14.097656 38.078125 13.011719 32.632812 C 12.082031 27.964844 15.375 23.734375 19.339844 22.917969 C 21.046875 22.566406 22.605469 21.855469 23.816406 20.542969 C 24.601562 19.695312 24.976562 18.96875 25.109375 18.640625 C 25.335938 18.070312 25.46875 17.410156 25.46875 16.71875 L 25.46875 16.707031 C 25.441406 16.128906 25.304688 15.554688 25.0625 15.027344 L 25.074219 15.054688 C 24.660156 14.109375 23.074219 12.609375 22.683594 12.296875 L 18.949219 9.371094 C 18.816406 9.261719 18.667969 9.269531 18.347656 9.292969 C 17.964844 9.320312 16.988281 9.371094 16.570312 9.261719 C 16.910156 9.003906 17.835938 8.628906 18.234375 8.328125 C 17.027344 7.511719 15.644531 7.804688 14.378906 7.5625 C 14.671875 7.015625 16.121094 6.175781 16.945312 6.082031 C 16.894531 5.59375 16.816406 5.109375 16.703125 4.628906 L 16.722656 4.710938 C 16.671875 4.527344 16.464844 4.347656 16.28125 4.242188 C 15.847656 3.984375 15.382812 3.773438 14.878906 3.515625 C 15.328125 3.226562 15.847656 3.0625 16.382812 3.050781 L 16.386719 3.050781 C 16.910156 3.035156 17.433594 3.085938 17.941406 3.207031 L 17.902344 3.199219 C 18.800781 3.402344 19.515625 3.269531 20.234375 2.660156 C 19.667969 2.433594 19.105469 2.226562 18.5625 1.980469 C 17.929688 1.691406 17.414062 1.417969 16.917969 1.117188 L 16.992188 1.160156 C 18.40625 1.355469 19.777344 1.886719 21.226562 1.691406 L 21.261719 1.496094 L 17.898438 0.710938 C 19.902344 0.527344 21.769531 0.5 23.539062 1.359375 C 24.035156 1.601562 24.554688 1.800781 25.03125 2.078125 C 25.265625 2.210938 25.421875 2.480469 25.613281 2.6875 C 25.761719 2.851562 25.886719 3.070312 26.074219 3.171875 C 26.777344 3.546875 27.554688 3.5625 28.347656 3.542969 L 28.363281 3.277344 C 29.164062 3.527344 30.058594 4.445312 30.058594 5.117188 C 28.765625 5.117188 27.476562 5.113281 26.183594 5.125 C 26.046875 5.125 25.910156 5.226562 25.773438 5.28125 C 25.902344 5.355469 26.03125 5.492188 26.164062 5.5 Z M 24.503906 3.589844 C 24.453125 3.621094 24.417969 3.675781 24.410156 3.738281 C 24.40625 3.800781 24.429688 3.863281 24.476562 3.90625 C 24.519531 3.972656 24.582031 4.023438 24.660156 4.042969 C 24.738281 4.0625 24.820312 4.054688 24.890625 4.011719 L 24.886719 4.015625 C 25.011719 3.949219 25.132812 3.882812 25.285156 3.804688 C 25.164062 3.703125 25.066406 3.613281 24.96875 3.535156 C 24.792969 3.390625 24.644531 3.480469 24.503906 3.589844 Z M 24.503906 3.589844 "/>
</g>
</svg>
